<svg width="21" height="21" viewBox="0 0 21 21" fill="none" xmlns="http://www.w3.org/2000/svg">
<path d="M15.0559 10.5198C15.048 9.18608 15.6523 8.18091 16.8726 7.43975C16.1901 6.46196 15.1575 5.92417 13.7965 5.82053C12.5077 5.71884 11.0978 6.57147 10.5815 6.57147C10.0359 6.57147 8.78822 5.85573 7.80652 5.85573C5.78054 5.88702 3.62744 7.47104 3.62744 10.6938C3.62744 11.6462 3.80149 12.6299 4.14958 13.6428C4.61501 14.9766 6.2929 18.2443 8.04314 18.1915C8.95835 18.17 9.60565 17.5423 10.7966 17.5423C11.9523 17.5423 12.5508 18.1915 13.5716 18.1915C15.3375 18.1661 16.855 15.1956 17.297 13.858C14.9287 12.7413 15.0559 10.5882 15.0559 10.5198ZM13.0005 4.55526C13.992 3.378 13.9021 2.30635 13.8727 1.9211C12.9966 1.97194 11.9836 2.51755 11.4067 3.18831C10.7712 3.90797 10.3977 4.79776 10.4778 5.80097C11.4243 5.87333 12.2887 5.38639 13.0005 4.55526Z" fill="#313131"/>
</svg>
