<svg width="27" height="27" viewBox="0 0 27 27" fill="none" xmlns="http://www.w3.org/2000/svg">
<g clip-path="url(#clip0_221_435)">
<path d="M16.3477 27H6.32812C2.8388 27 0 24.1612 0 20.6719V6.32812C0 2.8388 2.8388 0 6.32812 0H20.6719C24.1612 0 27 2.8388 27 6.32812V16.4268C27 17.0093 26.5278 17.4814 25.9453 17.4814C25.3628 17.4814 24.8906 17.0093 24.8906 16.4268V6.32812C24.8906 4.00191 22.9981 2.10938 20.6719 2.10938H6.32812C4.00191 2.10938 2.10938 4.00191 2.10938 6.32812V20.6719C2.10938 22.9981 4.00191 24.8906 6.32812 24.8906H16.3477C16.9302 24.8906 17.4023 25.3628 17.4023 25.9453C17.4023 26.5278 16.9302 27 16.3477 27ZM21.7266 6.64453C21.7266 6.06203 21.2544 5.58984 20.6719 5.58984H11.0215C10.439 5.58984 9.9668 6.06203 9.9668 6.64453C9.9668 7.22704 10.439 7.69922 11.0215 7.69922H20.6719C21.2544 7.69922 21.7266 7.22704 21.7266 6.64453ZM21.7266 10.8633C21.7266 10.2808 21.2544 9.80859 20.6719 9.80859H6.32812C5.74562 9.80859 5.27344 10.2808 5.27344 10.8633C5.27344 11.4458 5.74562 11.918 6.32812 11.918H20.6719C21.2544 11.918 21.7266 11.4458 21.7266 10.8633ZM11.1797 15.082C11.1797 14.4995 10.7075 14.0273 10.125 14.0273H6.32812C5.74562 14.0273 5.27344 14.4995 5.27344 15.082C5.27344 15.6645 5.74562 16.1367 6.32812 16.1367H10.125C10.7075 16.1367 11.1797 15.6645 11.1797 15.082ZM5.27344 6.53906C5.27344 7.26717 5.86369 7.85742 6.5918 7.85742C7.3199 7.85742 7.91016 7.26717 7.91016 6.53906C7.91016 5.81096 7.3199 5.2207 6.5918 5.2207C5.86369 5.2207 5.27344 5.81096 5.27344 6.53906ZM25.8725 25.8724C27.3734 24.3715 27.3734 21.9293 25.8725 20.4283L22.1753 16.7312C21.1068 15.6626 19.7587 14.9413 18.2769 14.6451L15.2888 14.0478C14.9431 13.9786 14.5856 14.0869 14.3363 14.3363C14.0869 14.5856 13.9787 14.943 14.0478 15.2888L14.6451 18.2769C14.9413 19.7588 15.6626 21.1068 16.7311 22.1754L20.4283 25.8725C21.1554 26.5995 22.1221 27 23.1504 27C24.1787 27 25.1454 26.5995 25.8725 25.8724ZM17.8635 16.7135C18.9355 16.9278 19.9107 17.4496 20.6837 18.2227L24.3809 21.9198C25.0594 22.5983 25.0594 23.7024 24.3809 24.3809C24.0523 24.7096 23.6152 24.8906 23.1504 24.8906C22.6856 24.8906 22.2485 24.7096 21.9199 24.3809L18.2227 20.6838C17.4497 19.9107 16.9278 18.9355 16.7136 17.8635L16.4263 16.4263L17.8635 16.7135Z" fill="#1D59F9"/>
</g>
<defs>
<clipPath id="clip0_221_435">
<rect width="27" height="27" fill="white"/>
</clipPath>
</defs>
</svg>
