<svg width="32" height="32" viewBox="0 0 32 32" fill="none" xmlns="http://www.w3.org/2000/svg">
<g clip-path="url(#clip0_221_437)">
<path d="M30.6282 0.746905C29.7021 -0.179331 28.2385 -0.253013 27.2239 0.575732L18.2702 7.8897H3.12786C1.74778 7.8897 0.625 9.01217 0.625 10.3919V25.4771C0.625 26.8568 1.74778 27.9793 3.12786 27.9793H10.241V30.1251H8.6644C8.1467 30.1251 7.72698 30.5448 7.72698 31.0625C7.72698 31.5803 8.1467 32 8.6644 32H18.6956C19.2134 32 19.6331 31.5803 19.6331 31.0625C19.6331 30.5448 19.2134 30.1251 18.6956 30.1251H17.119V27.9793H24.2322C25.6123 27.9793 26.7351 26.8568 26.7351 25.4771V9.13159L30.8001 4.15006C31.628 3.13571 31.554 1.67264 30.6282 0.746905ZM17.6662 11.6417C17.695 11.0768 17.9525 10.569 18.3922 10.2109L19.9519 8.9368L22.4421 11.427L21.1651 12.992C20.8075 13.4291 20.2999 13.6854 19.7359 13.7135C19.1712 13.742 18.6411 13.5373 18.2417 13.138C17.8418 12.738 17.6374 12.2066 17.6662 11.6417ZM16.9135 17.6901C16.4981 18.1055 15.8062 18.2967 14.8573 18.2587C14.1381 18.2297 13.5221 18.2803 13.0002 18.3743C13.0942 17.8525 13.1448 17.2362 13.1159 16.5173C13.0778 15.5683 13.2691 14.8766 13.6845 14.4612C14.1157 14.0299 14.6891 13.7924 15.299 13.7924C15.9089 13.7924 16.4822 14.0299 16.9134 14.4612C17.8037 15.3514 17.8037 16.7998 16.9135 17.6901ZM15.2442 30.1252H12.1159V27.9794H15.2442V30.1252ZM24.8603 25.4771C24.8603 25.823 24.5785 26.1045 24.2322 26.1045H3.12786C2.78157 26.1045 2.49985 25.823 2.49985 25.4771V24.6773H24.8603V25.4771ZM24.8603 22.8025H2.49985V10.3919C2.49985 10.046 2.78157 9.76454 3.12786 9.76454H16.3379C16.0171 10.3001 15.8263 10.9109 15.7938 11.5461C15.7869 11.6805 15.7873 11.8146 15.7945 11.9477C15.6312 11.9285 15.466 11.9175 15.299 11.9175C14.1884 11.9175 13.1442 12.35 12.3589 13.1354C11.5582 13.936 11.1827 15.0992 11.2427 16.5925C11.3226 18.5803 10.6636 19.3781 10.6122 19.4371C10.2614 19.8043 10.2665 20.3863 10.6274 20.7473C10.8104 20.9303 11.0503 21.0219 11.2902 21.0219C11.5234 21.0219 11.7565 20.9354 11.9374 20.7626C11.9961 20.7115 12.7942 20.0523 14.7821 20.132C16.2759 20.1921 17.4386 19.8165 18.2393 19.0158C19.1748 18.0803 19.5693 16.8063 19.4251 15.5844C19.496 15.5884 19.5671 15.5909 19.6384 15.5909C19.7019 15.5909 19.7657 15.5893 19.8294 15.5861C20.9134 15.532 21.9292 15.0192 22.6171 14.1782L24.8604 11.4292V22.8025H24.8603ZM11.953 20.7473C11.953 20.7473 11.9484 20.7525 11.9385 20.7616C11.9434 20.7569 11.9482 20.7521 11.953 20.7473ZM10.6273 19.4216C10.6225 19.4264 10.6178 19.4312 10.6131 19.436C10.6222 19.4262 10.6273 19.4216 10.6273 19.4216ZM29.3475 2.96479L23.6334 9.96709L21.4111 7.74483L28.41 2.02774C28.5336 1.92668 28.6828 1.87681 28.8315 1.87681C29.0024 1.87681 29.1725 1.94274 29.3024 2.07261C29.5452 2.31534 29.5646 2.69887 29.3475 2.96479Z" fill="#1D59F9"/>
</g>
<defs>
<clipPath id="clip0_221_437">
<rect width="32" height="32" fill="white"/>
</clipPath>
</defs>
</svg>
