<svg width="21" height="21" viewBox="0 0 21 21" fill="none" xmlns="http://www.w3.org/2000/svg">
<path d="M18.7834 8.42248H18.1113V8.38786H10.6019V11.7254H15.3174C14.6294 13.6682 12.7809 15.0629 10.6019 15.0629C7.83715 15.0629 5.59558 12.8213 5.59558 10.0566C5.59558 7.2919 7.83715 5.05033 10.6019 5.05033C11.8781 5.05033 13.0391 5.53177 13.9231 6.31817L16.2832 3.95813C14.793 2.5693 12.7996 1.71281 10.6019 1.71281C5.994 1.71281 2.25806 5.44875 2.25806 10.0566C2.25806 14.6645 5.994 18.4004 10.6019 18.4004C15.2097 18.4004 18.9457 14.6645 18.9457 10.0566C18.9457 9.49717 18.8881 8.95106 18.7834 8.42248Z" fill="#FFC107"/>
<path d="M3.21973 6.17299L5.96109 8.18343C6.70285 6.34696 8.49927 5.05033 10.6015 5.05033C11.8777 5.05033 13.0387 5.53177 13.9228 6.31817L16.2828 3.95813C14.7926 2.5693 12.7993 1.71281 10.6015 1.71281C7.39664 1.71281 4.61732 3.52216 3.21973 6.17299Z" fill="#FF3D00"/>
<path d="M10.6024 18.4004C12.7576 18.4004 14.7159 17.5756 16.1965 16.2344L13.6141 14.0491C12.7482 14.7076 11.6902 15.0638 10.6024 15.0629C8.43217 15.0629 6.58944 13.6791 5.89523 11.7479L3.17432 13.8443C4.55522 16.5464 7.35957 18.4004 10.6024 18.4004Z" fill="#4CAF50"/>
<path d="M18.7833 8.42233H18.1112V8.3877H10.6018V11.7252H15.3173C14.9882 12.6499 14.3955 13.4579 13.6123 14.0494L13.6135 14.0486L16.1959 16.2338C16.0132 16.3998 18.9456 14.2284 18.9456 10.0565C18.9456 9.49701 18.888 8.95091 18.7833 8.42233Z" fill="#1976D2"/>
</svg>
