<svg width="29" height="28" viewBox="0 0 29 28" fill="none" xmlns="http://www.w3.org/2000/svg">
<g clip-path="url(#clip0_13_86)">
<path d="M13.7058 13.6381C13.7058 11.5711 11.9641 9.88953 9.82335 9.88953C7.68262 9.88953 5.94092 11.5711 5.94092 13.6381C5.94092 15.705 7.68262 17.3866 9.82335 17.3866C11.9641 17.3866 13.7058 15.705 13.7058 13.6381ZM8.20654 13.6381C8.20654 12.7773 8.93183 12.077 9.82335 12.077C10.7149 12.077 11.4402 12.7773 11.4402 13.6381C11.4402 14.4989 10.7149 15.1991 9.82335 15.1991C8.93183 15.1991 8.20654 14.4989 8.20654 13.6381Z" fill="#1D59F9"/>
<path d="M5.4193 22.3842C5.64048 22.5978 5.93037 22.7046 6.22031 22.7046C6.51025 22.7046 6.80014 22.5978 7.02132 22.3842C7.76977 21.6616 8.76489 21.2636 9.82339 21.2636C10.8819 21.2636 11.877 21.6615 12.6255 22.3842C13.0679 22.8114 13.7851 22.8114 14.2275 22.3842C14.6698 21.9571 14.6699 21.2646 14.2275 20.8375C13.0511 19.7016 11.487 19.0761 9.82339 19.0761C8.15974 19.0761 6.59567 19.7016 5.4193 20.8375C4.97693 21.2646 4.97693 21.9571 5.4193 22.3842Z" fill="#1D59F9"/>
<path d="M22.7796 15.381H18.2773C17.6517 15.381 17.1445 15.8706 17.1445 16.4747C17.1445 17.0788 17.6517 17.5685 18.2773 17.5685H22.7796C23.4053 17.5685 23.9125 17.0788 23.9125 16.4747C23.9125 15.8706 23.4053 15.381 22.7796 15.381Z" fill="#1D59F9"/>
<path d="M22.7796 20.5171H18.2773C17.6517 20.5171 17.1445 21.0068 17.1445 21.6108C17.1445 22.2149 17.6517 22.7046 18.2773 22.7046H22.7796C23.4053 22.7046 23.9125 22.2149 23.9125 21.6108C23.9125 21.0068 23.4053 20.5171 22.7796 20.5171Z" fill="#1D59F9"/>
<path d="M27.8672 18.4134C28.4928 18.4134 29 17.9237 29 17.3196V9.79513C29 7.38275 26.9673 5.42013 24.4688 5.42013H17.7845L17.9074 4.74277C18.0843 3.76846 17.8078 2.77522 17.1489 2.01785C16.49 1.26043 15.5245 0.82605 14.5 0.82605C13.4755 0.82605 12.51 1.26043 11.8511 2.01785C11.1921 2.77528 10.9157 3.76846 11.0925 4.74277L11.2155 5.42013H4.53125C2.03272 5.42013 0 7.38275 0 9.79513V22.7989C0 25.2113 2.03272 27.1739 4.53125 27.1739H24.4688C26.9673 27.1739 29 25.2113 29 22.7989V22.7884C29 22.1843 28.4928 21.6946 27.8672 21.6946C27.2415 21.6946 26.7344 22.1843 26.7344 22.7884V22.7989C26.7344 24.0051 25.718 24.9864 24.4688 24.9864H4.53125C3.28198 24.9864 2.26562 24.0051 2.26562 22.7989V9.79513C2.26562 8.58894 3.28198 7.60763 4.53125 7.60763H24.4688C25.718 7.60763 26.7344 8.58894 26.7344 9.79513V17.3196C26.7344 17.9237 27.2415 18.4134 27.8672 18.4134ZM13.3241 4.36515C13.2622 4.02401 13.3552 3.69003 13.5859 3.42485C13.8167 3.15967 14.1413 3.01355 14.5 3.01355C14.8587 3.01355 15.1833 3.15962 15.4141 3.42485C15.6448 3.69009 15.7378 4.02401 15.6758 4.36515L15.4843 5.42018H13.5157L13.3241 4.36515Z" fill="#1D59F9"/>
</g>
<defs>
<clipPath id="clip0_13_86">
<rect width="29" height="28" fill="white"/>
</clipPath>
</defs>
</svg>
