<svg width="27" height="27" viewBox="0 0 27 27" fill="none" xmlns="http://www.w3.org/2000/svg">
<g clip-path="url(#clip0_13_21)">
<path d="M11.3906 4.21875H7.17188C5.42721 4.21875 4.00781 5.63815 4.00781 7.38281C4.00781 7.96532 4.48 8.4375 5.0625 8.4375C5.645 8.4375 6.11719 7.96532 6.11719 7.38281C6.11719 6.80126 6.59032 6.32812 7.17188 6.32812H8.22656V12.2344H7.17188C6.58937 12.2344 6.11719 12.7066 6.11719 13.2891C6.11719 13.8716 6.58937 14.3438 7.17188 14.3438H11.3906C11.9731 14.3438 12.4453 13.8716 12.4453 13.2891C12.4453 12.7066 11.9731 12.2344 11.3906 12.2344H10.3359V6.32812H11.3906C11.9722 6.32812 12.4453 6.80126 12.4453 7.38281C12.4453 7.96532 12.9175 8.4375 13.5 8.4375C14.0825 8.4375 14.5547 7.96532 14.5547 7.38281C14.5547 5.63815 13.1353 4.21875 11.3906 4.21875Z" fill="#1D59F9"/>
<path d="M21.7266 27H5.27344C2.36566 27 0 24.6343 0 21.7266V5.27344C0 2.36566 2.36566 0 5.27344 0H21.7266C24.6344 0 27 2.36566 27 5.27344V21.7266C27 24.6343 24.6344 27 21.7266 27ZM5.27344 2.10938C3.52877 2.10938 2.10938 3.52877 2.10938 5.27344V21.7266C2.10938 23.4712 3.52877 24.8906 5.27344 24.8906H21.7266C23.4712 24.8906 24.8906 23.4712 24.8906 21.7266V5.27344C24.8906 3.52877 23.4712 2.10938 21.7266 2.10938H5.27344Z" fill="#1D59F9"/>
<path d="M21.9375 10.125H17.7188C17.1362 10.125 16.6641 9.65282 16.6641 9.07031C16.6641 8.48781 17.1362 8.01562 17.7188 8.01562H21.9375C22.52 8.01562 22.9922 8.48781 22.9922 9.07031C22.9922 9.65282 22.52 10.125 21.9375 10.125Z" fill="#1D59F9"/>
<path d="M21.9375 14.3438H17.7188C17.1362 14.3438 16.6641 13.8716 16.6641 13.2891C16.6641 12.7066 17.1362 12.2344 17.7188 12.2344H21.9375C22.52 12.2344 22.9922 12.7066 22.9922 13.2891C22.9922 13.8716 22.52 14.3438 21.9375 14.3438Z" fill="#1D59F9"/>
<path d="M21.7266 18.5625H5.27344C4.69093 18.5625 4.21875 18.0903 4.21875 17.5078C4.21875 16.9253 4.69093 16.4531 5.27344 16.4531H21.7266C22.3091 16.4531 22.7812 16.9253 22.7812 17.5078C22.7812 18.0903 22.3091 18.5625 21.7266 18.5625Z" fill="#1D59F9"/>
<path d="M21.7266 22.7812H5.27344C4.69093 22.7812 4.21875 22.3091 4.21875 21.7266C4.21875 21.1441 4.69093 20.6719 5.27344 20.6719H21.7266C22.3091 20.6719 22.7812 21.1441 22.7812 21.7266C22.7812 22.3091 22.3091 22.7812 21.7266 22.7812Z" fill="#1D59F9"/>
</g>
<defs>
<clipPath id="clip0_13_21">
<rect width="27" height="27" fill="white"/>
</clipPath>
</defs>
</svg>
