<svg width="30" height="30" viewBox="0 0 30 30" fill="none" xmlns="http://www.w3.org/2000/svg">
<path d="M15 25.0833C14.1437 25.0833 13.3159 24.7696 12.6691 24.2C9.6007 21.4974 4.45312 16.1299 4.45312 10.5469C4.45312 4.73133 9.18445 0 15 0C20.8155 0 25.5469 4.73133 25.5469 10.5469C25.5469 16.1299 20.3992 21.4974 17.3308 24.2C16.6841 24.7696 15.8563 25.0833 15 25.0833ZM15 2.34375C10.4768 2.34375 6.79688 6.02367 6.79688 10.5469C6.79688 15.3825 11.9869 20.4758 14.2182 22.4412C14.4367 22.6337 14.7144 22.7396 15 22.7396C15.2856 22.7396 15.5633 22.6337 15.7817 22.4412C18.0131 20.4758 23.2031 15.3825 23.2031 10.5469C23.2031 6.02367 19.5232 2.34375 15 2.34375Z" fill="#1D59F9"/>
<path d="M15 30C11.7589 30 8.69648 29.6167 6.37687 28.9209C5.17834 28.5613 4.21863 28.1293 3.52424 27.6368C2.35482 26.8074 2.10938 25.915 2.10938 25.3125C2.10938 24.6729 2.38494 23.7299 3.69768 22.87C4.48084 22.3569 5.55844 21.9148 6.90059 21.5557C7.52566 21.3885 8.16826 21.7597 8.33549 22.3849C8.50272 23.0101 8.13152 23.6525 7.50627 23.8198C5.21982 24.4315 4.54002 25.124 4.45775 25.3125C4.53762 25.4944 5.18607 26.1618 7.35627 26.7643C9.42826 27.3395 12.1429 27.6562 15 27.6562C17.8571 27.6562 20.5717 27.3395 22.6437 26.7643C24.814 26.1618 25.4624 25.4944 25.5422 25.3125C25.46 25.1241 24.7801 24.4315 22.4937 23.8199C21.8685 23.6526 21.4973 23.0102 21.6646 22.3849C21.8318 21.7597 22.474 21.3884 23.0995 21.5558C24.4416 21.9148 25.5192 22.357 26.3023 22.87C27.6151 23.7299 27.8906 24.6729 27.8906 25.3125C27.8906 25.915 27.6452 26.8074 26.4758 27.6368C25.7814 28.1293 24.8217 28.5613 23.6231 28.9209C21.3035 29.6167 18.2411 30 15 30Z" fill="#1D59F9"/>
<path d="M15 15.2344C12.4153 15.2344 10.3125 13.1316 10.3125 10.5469C10.3125 7.96219 12.4153 5.85938 15 5.85938C17.5847 5.85938 19.6875 7.96219 19.6875 10.5469C19.6875 13.1316 17.5847 15.2344 15 15.2344ZM15 8.20312C13.7077 8.20312 12.6562 9.25453 12.6562 10.5469C12.6562 11.8392 13.7077 12.8906 15 12.8906C16.2923 12.8906 17.3438 11.8392 17.3438 10.5469C17.3438 9.25453 16.2923 8.20312 15 8.20312Z" fill="#1D59F9"/>
</svg>
