<svg width="30" height="28" viewBox="0 0 30 28" fill="none" xmlns="http://www.w3.org/2000/svg">
<g clip-path="url(#clip0_13_34)">
<path d="M19.4531 19.25H17.6953C17.0481 19.25 16.5234 19.7397 16.5234 20.3438V26.9062C16.5234 27.5103 17.0481 28 17.6953 28H19.4531C21.3916 28 22.9688 26.528 22.9688 24.7188V22.5312C22.9688 20.722 21.3916 19.25 19.4531 19.25ZM20.625 24.7188C20.625 25.3218 20.0993 25.8125 19.4531 25.8125H18.8672V21.4375H19.4531C20.0993 21.4375 20.625 21.9282 20.625 22.5312V24.7188Z" fill="#1D59F9"/>
<path d="M28.8281 19.25H25.3125C24.6653 19.25 24.1406 19.7397 24.1406 20.3438V26.9062C24.1406 27.5103 24.6653 28 25.3125 28C25.9597 28 26.4844 27.5103 26.4844 26.9062V24.7188H27.6562C28.3035 24.7188 28.8281 24.2291 28.8281 23.625C28.8281 23.0209 28.3035 22.5312 27.6562 22.5312H26.4844V21.4375H28.8281C29.4754 21.4375 30 20.9478 30 20.3438C30 19.7397 29.4754 19.25 28.8281 19.25Z" fill="#1D59F9"/>
<path d="M12.4219 19.25H10.0781C9.4309 19.25 8.90625 19.7397 8.90625 20.3438V26.9062C8.90625 27.5103 9.4309 28 10.0781 28C10.7254 28 11.25 27.5103 11.25 26.9062V24.7188H12.4219C14.0373 24.7188 15.3516 23.4921 15.3516 21.9844C15.3516 20.4766 14.0373 19.25 12.4219 19.25ZM12.4219 22.5312H11.25V21.4375H12.4219C12.745 21.4375 13.0078 21.6828 13.0078 21.9844C13.0078 22.2859 12.745 22.5312 12.4219 22.5312Z" fill="#1D59F9"/>
<path d="M12.5474 17.1796L14.8911 14.9921C15.3488 14.565 15.3488 13.8725 14.8911 13.4454C14.4334 13.0182 13.6915 13.0182 13.2339 13.4454L12.8906 13.7657V9.84375C12.8906 9.23967 12.366 8.75 11.7187 8.75C11.0715 8.75 10.5469 9.23967 10.5469 9.84375V13.7657L10.2036 13.4454C9.74595 13.0182 9.00398 13.0182 8.54636 13.4454C8.08874 13.8725 8.08868 14.565 8.54636 14.9921L10.8901 17.1796C11.3465 17.6058 12.0919 17.6049 12.5474 17.1796Z" fill="#1D59F9"/>
<path d="M23.0937 6.88231L16.0631 0.320469C16.0502 0.312375 15.7443 0 15.2344 0H3.51562C1.57711 0 0 1.47197 0 3.28125V24.7188C0 26.528 1.57711 28 3.51562 28H5.85938C6.5066 28 7.03125 27.5103 7.03125 26.9062C7.03125 26.3022 6.5066 25.8125 5.85938 25.8125H3.51562C2.86945 25.8125 2.34375 25.3218 2.34375 24.7188V3.28125C2.34375 2.67816 2.86945 2.1875 3.51562 2.1875H14.0625V5.46875C14.0625 7.27803 15.6396 8.75 17.5781 8.75H21.0938V16.4062C21.0938 17.0103 21.6184 17.5 22.2656 17.5C22.9129 17.5 23.4375 17.0103 23.4375 16.4062V7.65619C23.4375 7.36909 23.3118 7.08515 23.0937 6.88231ZM17.5781 6.5625C16.932 6.5625 16.4062 6.07184 16.4062 5.46875V3.73428L19.4365 6.5625H17.5781Z" fill="#1D59F9"/>
</g>
<defs>
<clipPath id="clip0_13_34">
<rect width="30" height="28" fill="white"/>
</clipPath>
</defs>
</svg>
