<svg width="27" height="27" viewBox="0 0 27 27" fill="none" xmlns="http://www.w3.org/2000/svg">
<path d="M21.7266 25.1016H5.27344C2.36561 25.1016 0 22.7359 0 19.8281V7.17188C0 4.2641 2.36561 1.89844 5.27344 1.89844H21.7266C24.6344 1.89844 27 4.2641 27 7.17188V19.8281C27 22.7359 24.6344 25.1016 21.7266 25.1016ZM5.27344 4.00781C3.52877 4.00781 2.10938 5.42721 2.10938 7.17188V19.8281C2.10938 21.5728 3.52877 22.9922 5.27344 22.9922H21.7266C23.4712 22.9922 24.8906 21.5728 24.8906 19.8281V7.17188C24.8906 5.42721 23.4712 4.00781 21.7266 4.00781H5.27344Z" fill="#1D59F9"/>
<path d="M9.28125 12.4453C7.53659 12.4453 6.11719 11.0259 6.11719 9.28125C6.11719 7.53659 7.53659 6.11719 9.28125 6.11719C11.0259 6.11719 12.4453 7.53659 12.4453 9.28125C12.4453 11.0259 11.0259 12.4453 9.28125 12.4453ZM9.28125 8.22656C8.6997 8.22656 8.22656 8.6997 8.22656 9.28125C8.22656 9.8628 8.6997 10.3359 9.28125 10.3359C9.8628 10.3359 10.3359 9.8628 10.3359 9.28125C10.3359 8.6997 9.8628 8.22656 9.28125 8.22656Z" fill="#1D59F9"/>
<path d="M21.1916 20.5739L15.6093 14.9916L12.1364 18.4645C11.7245 18.8764 11.0567 18.8764 10.6448 18.4645L9.28119 17.1009L6.0192 20.5739C5.03323 21.5599 3.54027 20.0698 4.52761 19.0824L8.53542 14.8636C8.94733 14.4517 9.61516 14.4517 10.027 14.8636L11.3906 16.2272L14.8635 12.7542C15.2754 12.3423 15.9432 12.3423 16.3551 12.7542L22.6832 19.0824C23.6828 20.0821 22.1646 21.5468 21.1916 20.5739Z" fill="#1D59F9"/>
</svg>
