<svg width="26" height="26" viewBox="0 0 26 26" fill="none" xmlns="http://www.w3.org/2000/svg">
<g clip-path="url(#clip0_16_142)">
<path d="M15.0312 22.1406C15.5922 22.1406 16.0469 21.6859 16.0469 21.125V20.1094H18.0781V21.125C18.0781 21.6859 18.5328 22.1406 19.0938 22.1406H21.125C21.6859 22.1406 22.1406 21.6859 22.1406 21.125C22.1406 20.5641 21.6859 20.1094 21.125 20.1094H20.1094V19.0938C20.1094 18.5328 19.6547 18.0781 19.0938 18.0781H16.0469V15.0312C16.0469 14.4703 15.5922 14.0156 15.0312 14.0156C14.4703 14.0156 14.0156 14.4703 14.0156 15.0312V21.125C14.0156 21.6859 14.4703 22.1406 15.0312 22.1406Z" fill="white"/>
<path d="M19.0938 16.0469H20.1094V17.0625C20.1094 17.6234 20.5641 18.0781 21.125 18.0781C21.6859 18.0781 22.1406 17.6234 22.1406 17.0625V15.0312C22.1406 14.4703 21.6859 14.0156 21.125 14.0156H19.0938C18.5328 14.0156 18.0781 14.4703 18.0781 15.0312C18.0781 15.5922 18.5328 16.0469 19.0938 16.0469Z" fill="white"/>
<path d="M1.01562 8.125C1.57655 8.125 2.03125 7.6703 2.03125 7.10938V5.07812C2.03125 3.39808 3.39808 2.03125 5.07812 2.03125H7.10938C7.6703 2.03125 8.125 1.57655 8.125 1.01562C8.125 0.454695 7.6703 0 7.10938 0H5.07812C2.27805 0 0 2.27805 0 5.07812V7.10938C0 7.6703 0.454695 8.125 1.01562 8.125Z" fill="white"/>
<path d="M20.9219 0H18.8906C18.3297 0 17.875 0.454695 17.875 1.01562C17.875 1.57655 18.3297 2.03125 18.8906 2.03125H20.9219C22.6019 2.03125 23.9688 3.39808 23.9688 5.07812V7.10938C23.9688 7.6703 24.4234 8.125 24.9844 8.125C25.5453 8.125 26 7.6703 26 7.10938V5.07812C26 2.27805 23.722 0 20.9219 0Z" fill="white"/>
<path d="M5.07812 26H7.10938C7.6703 26 8.125 25.5453 8.125 24.9844C8.125 24.4234 7.6703 23.9688 7.10938 23.9688H5.07812C3.39808 23.9688 2.03125 22.6019 2.03125 20.9219V18.8906C2.03125 18.3297 1.57655 17.875 1.01562 17.875C0.454695 17.875 0 18.3297 0 18.8906V20.9219C0 23.722 2.27805 26 5.07812 26Z" fill="white"/>
<path d="M24.9844 17.875C24.4234 17.875 23.9688 18.3297 23.9688 18.8906V20.9219C23.9688 22.6019 22.6019 23.9688 20.9219 23.9688H18.8906C18.3297 23.9688 17.875 24.4234 17.875 24.9844C17.875 25.5453 18.3297 26 18.8906 26H20.9219C23.722 26 26 23.722 26 20.9219V18.8906C26 18.3297 25.5453 17.875 24.9844 17.875Z" fill="white"/>
<path d="M3.85938 6.90625V8.9375C3.85938 10.6175 5.2262 11.9844 6.90625 11.9844H8.9375C10.6175 11.9844 11.9844 10.6175 11.9844 8.9375V6.90625C11.9844 5.2262 10.6175 3.85938 8.9375 3.85938H6.90625C5.2262 3.85938 3.85938 5.2262 3.85938 6.90625ZM9.95312 6.90625V8.9375C9.95312 9.49752 9.49752 9.95312 8.9375 9.95312H6.90625C6.34623 9.95312 5.89062 9.49752 5.89062 8.9375V6.90625C5.89062 6.34623 6.34623 5.89062 6.90625 5.89062H8.9375C9.49752 5.89062 9.95312 6.34623 9.95312 6.90625Z" fill="white"/>
<path d="M17.0625 11.9844H19.0938C20.7738 11.9844 22.1406 10.6175 22.1406 8.9375V6.90625C22.1406 5.2262 20.7738 3.85938 19.0938 3.85938H17.0625C15.3825 3.85938 14.0156 5.2262 14.0156 6.90625V8.9375C14.0156 10.6175 15.3825 11.9844 17.0625 11.9844ZM16.0469 6.90625C16.0469 6.34623 16.5025 5.89062 17.0625 5.89062H19.0938C19.6538 5.89062 20.1094 6.34623 20.1094 6.90625V8.9375C20.1094 9.49752 19.6538 9.95312 19.0938 9.95312H17.0625C16.5025 9.95312 16.0469 9.49752 16.0469 8.9375V6.90625Z" fill="white"/>
<path d="M11.9844 17.0625C11.9844 15.3825 10.6175 14.0156 8.9375 14.0156H6.90625C5.2262 14.0156 3.85938 15.3825 3.85938 17.0625V19.0938C3.85938 20.7738 5.2262 22.1406 6.90625 22.1406H8.9375C10.6175 22.1406 11.9844 20.7738 11.9844 19.0938V17.0625ZM9.95312 19.0938C9.95312 19.6538 9.49752 20.1094 8.9375 20.1094H6.90625C6.34623 20.1094 5.89062 19.6538 5.89062 19.0938V17.0625C5.89062 16.5025 6.34623 16.0469 6.90625 16.0469H8.9375C9.49752 16.0469 9.95312 16.5025 9.95312 17.0625V19.0938Z" fill="white"/>
</g>
<defs>
<clipPath id="clip0_16_142">
<rect width="26" height="26" fill="white"/>
</clipPath>
</defs>
</svg>
