<svg width="29" height="29" viewBox="0 0 29 29" fill="none" xmlns="http://www.w3.org/2000/svg">
<g clip-path="url(#clip0_13_93)">
<path d="M13.9139 6.30415C13.222 5.90257 12.3952 5.90125 11.702 6.30038C11.0069 6.70085 10.5918 7.4197 10.5918 8.22307V13.8668C10.5918 14.6704 11.0069 15.389 11.7023 15.7895C12.0476 15.9884 12.4262 16.0879 12.805 16.0879C13.186 16.0879 13.567 15.9873 13.9139 15.7857L18.7768 12.9641C19.4682 12.5629 19.8809 11.8454 19.8809 11.0449C19.8809 10.2444 19.4682 9.52691 18.7768 9.12578L13.9139 6.30415ZM12.8574 13.7794V8.31046L17.5699 11.0449L12.8574 13.7794ZM26.7344 11.8379V4.53125C26.7344 3.28206 25.7179 2.26562 24.4688 2.26562H4.53125C3.28206 2.26562 2.26562 3.28206 2.26562 4.53125V17.5586C2.26562 18.8078 3.28206 19.8242 4.53125 19.8242H24.4688C25.7179 19.8242 26.7344 18.8078 26.7344 17.5586C26.7344 16.9329 27.2415 16.4258 27.8672 16.4258C28.4929 16.4258 29 16.9329 29 17.5586C29 20.0572 26.9674 22.0898 24.4688 22.0898H4.53125C2.03265 22.0898 0 20.0572 0 17.5586V4.53125C0 2.03265 2.03265 0 4.53125 0H24.4688C26.9674 0 29 2.03265 29 4.53125V11.8379C29 12.4636 28.4929 12.9707 27.8672 12.9707C27.2415 12.9707 26.7344 12.4636 26.7344 11.8379ZM29 26.6777C29 27.3034 28.4929 27.8105 27.8672 27.8105H13.3105C12.6848 27.8105 12.1777 27.3034 12.1777 26.6777C12.1777 26.052 12.6848 25.5449 13.3105 25.5449H27.8672C28.4929 25.5449 29 26.052 29 26.6777ZM9.91211 26.7344C9.91211 27.9856 8.89767 29 7.64648 29C6.78471 29 6.03555 28.5188 5.65234 27.8105H1.13281C0.507111 27.8105 0 27.3034 0 26.6777C0 26.052 0.507111 25.5449 1.13281 25.5449H5.71827C6.11741 24.8993 6.83161 24.4688 7.64648 24.4688C8.89767 24.4688 9.91211 25.4832 9.91211 26.7344Z" fill="#1D59F9"/>
</g>
<defs>
<clipPath id="clip0_13_93">
<rect width="29" height="29" fill="white"/>
</clipPath>
</defs>
</svg>
