<svg width="30" height="30" viewBox="0 0 30 30" fill="none" xmlns="http://www.w3.org/2000/svg">
<g clip-path="url(#clip0_324_997)">
<path d="M9.90174 19.1499C9.30635 19.7453 9.30635 20.7107 9.90174 21.3058C10.4973 21.9012 11.4625 21.9012 12.0578 21.3058C13.6799 19.6837 16.3198 19.6837 17.9419 21.3058C18.2397 21.6034 18.63 21.7524 19.0201 21.7524C19.4102 21.7524 19.8004 21.6036 20.0982 21.3058C20.6936 20.7104 20.6936 19.7451 20.0982 19.1499C17.287 16.3387 12.713 16.3387 9.90174 19.1499Z" fill="#1D59F9"/>
<path d="M5.43335 14.6813C4.83797 15.2766 4.83797 16.242 5.43335 16.8372C6.02873 17.4323 6.99387 17.4327 7.58945 16.8372C11.6756 12.751 18.3244 12.751 22.4104 16.8372C22.7082 17.1348 23.0984 17.2837 23.4885 17.2837C23.8786 17.2837 24.2689 17.135 24.5667 16.8372C25.1621 16.2418 25.1621 15.2764 24.5667 14.6813C19.2916 9.40638 10.7084 9.40638 5.43335 14.6813Z" fill="#1D59F9"/>
<path d="M29.5536 9.69449C21.5286 1.66954 8.47128 1.66954 0.446536 9.69449C-0.148845 10.2899 -0.148845 11.2552 0.446536 11.8504C1.04212 12.4458 2.00725 12.4458 2.60264 11.8504C5.91393 8.53889 10.3168 6.71535 14.9999 6.71535C19.6831 6.71535 24.086 8.5391 27.3973 11.8504C27.6951 12.148 28.0853 12.297 28.4754 12.297C28.8655 12.297 29.2558 12.1482 29.5536 11.8504C30.1489 11.2552 30.1489 10.2899 29.5536 9.69449Z" fill="#1D59F9"/>
<path d="M14.9999 26.3243C15.924 26.3243 16.673 25.5752 16.673 24.6512C16.673 23.7271 15.924 22.978 14.9999 22.978C14.0759 22.978 13.3268 23.7271 13.3268 24.6512C13.3268 25.5752 14.0759 26.3243 14.9999 26.3243Z" fill="#1D59F9"/>
</g>
<defs>
<clipPath id="clip0_324_997">
<rect width="30" height="30" fill="white"/>
</clipPath>
</defs>
</svg>
