<svg width="28" height="28" viewBox="0 0 28 28" fill="none" xmlns="http://www.w3.org/2000/svg">
<g clip-path="url(#clip0_13_95)">
<path d="M14 28C21.7196 28 28 21.7196 28 14.0001C28 6.28045 21.7196 0 14 0C6.28048 0 0.00012207 6.28045 0.00012207 14.0001C0.00012207 21.7196 6.28048 28 14 28ZM4.87226 20.912C5.98156 20.4757 7.37825 20.128 8.9481 19.8897C9.16124 21.1693 9.44413 22.3556 9.79285 23.402C9.97553 23.95 10.1679 24.4338 10.3666 24.8635C8.16029 24.1236 6.25181 22.7292 4.87226 20.912ZM2.54556 14.0001C2.54556 12.3248 2.90718 10.7323 3.55619 9.29671C4.93267 9.88598 6.67146 10.3419 8.63026 10.6362C8.53489 11.7232 8.48492 12.851 8.48492 14.0001C8.48492 15.1491 8.53489 16.277 8.63026 17.3639C6.67146 17.6583 4.93259 18.1142 3.55627 18.7035C2.90718 17.2678 2.54556 15.6754 2.54556 14.0001ZM14 2.54544C14.2741 2.54544 15.0729 3.24382 15.7925 5.40295C16.0883 6.29046 16.3316 7.29701 16.5193 8.38688C15.7011 8.44407 14.8573 8.47428 13.9997 8.47428C13.1423 8.47428 12.2988 8.44415 11.4808 8.38688C11.6685 7.29701 11.9118 6.29054 12.2076 5.40303C12.9273 3.24382 13.726 2.54544 14 2.54544ZM13.9997 11.0197C14.9693 11.0197 15.9197 10.9841 16.8403 10.9161C16.9253 11.9093 16.9697 12.9432 16.9697 14.0001C16.9697 15.0569 16.9253 16.0907 16.8404 17.0839C15.9198 17.0159 14.9695 16.9803 14 16.9803C13.0306 16.9803 12.0803 17.0159 11.1598 17.0839C11.0747 16.0907 11.0304 15.0569 11.0304 14.0001C11.0304 12.9432 11.0747 11.9093 11.1598 10.9161C12.0802 10.9841 13.0304 11.0197 13.9997 11.0197ZM25.4545 14.0001C25.4545 15.6753 25.0929 17.2677 24.4439 18.7033C23.0674 18.114 21.3286 17.6582 19.3698 17.3639C19.4652 16.277 19.5152 15.1492 19.5152 14.0001C19.5152 12.8509 19.4652 11.7231 19.3698 10.6361C21.3286 10.3418 23.0674 9.88581 24.4437 9.29645C25.0929 10.7322 25.4545 12.3247 25.4545 14.0001ZM14 25.4546C13.726 25.4546 12.9273 24.7561 12.2077 22.597C11.9118 21.7095 11.6686 20.703 11.4808 19.6131C12.299 19.5558 13.1425 19.5257 14 19.5257C14.8576 19.5257 15.7012 19.5558 16.5193 19.6131C16.3316 20.703 16.0883 21.7095 15.7925 22.597C15.0729 24.7562 14.2742 25.4546 14 25.4546ZM17.6337 24.8635C17.8323 24.4338 18.0246 23.95 18.2073 23.402C18.5561 22.3556 18.839 21.1693 19.0521 19.8897C20.6218 20.128 22.0185 20.4756 23.1278 20.9119C21.7484 22.7291 19.84 24.1236 17.6337 24.8635ZM23.1276 7.08794C22.0185 7.52423 20.6218 7.87202 19.0521 8.11019C18.8389 6.83069 18.5561 5.64434 18.2073 4.598C18.0247 4.04996 17.8323 3.56624 17.6336 3.1364C19.8398 3.87645 21.7482 5.27076 23.1276 7.08794ZM10.3666 3.13649C10.1679 3.56616 9.97561 4.04996 9.79285 4.598C9.44413 5.64451 9.16124 6.83077 8.9481 8.11036C7.37825 7.87211 5.98156 7.5244 4.87226 7.0882C6.25172 5.27093 8.16021 3.87636 10.3666 3.13649Z" fill="#1D59F9"/>
</g>
<defs>
<clipPath id="clip0_13_95">
<rect width="28" height="28" fill="white"/>
</clipPath>
</defs>
</svg>
