<svg width="80" height="97" viewBox="0 0 80 97" fill="none" xmlns="http://www.w3.org/2000/svg">
<g clip-path="url(#clip0_181_4309)">
<path d="M4.89656 0H75.1017C77.8041 0 79.9983 2.17316 79.9983 4.84966V92.1486C79.9983 94.8251 77.8041 96.9983 75.1017 96.9983H4.89656C2.19418 96.9983 0 94.8251 0 92.1486V4.84966C0 2.17316 2.19418 0 4.89656 0Z" fill="#989898"/>
<path d="M8.29256 24.8843H71.7074C72.3169 24.8843 72.8114 25.374 72.8114 25.9777V88.7869C72.8114 89.3905 72.3169 89.8803 71.7074 89.8803H8.29256C7.68306 89.8803 7.1886 89.3905 7.1886 88.7869V25.9794C7.1886 25.3757 7.68306 24.8843 8.29427 24.8843H8.29256Z" fill="white"/>
<path d="M33.0397 24.585L40 28.0573L46.9603 24.585H33.0397Z" fill="#989898"/>
<path d="M13.5995 10.0224C13.5428 9.55308 13.3076 9.18918 12.8921 8.93072C12.4783 8.67225 11.9564 8.54131 11.3297 8.54131C10.655 8.54131 10.121 8.68245 9.72445 8.96642C9.32785 9.2504 9.1304 9.60749 9.1304 10.0411C9.1304 10.3642 9.23685 10.6278 9.44975 10.8301C9.66092 11.0325 9.92189 11.1923 10.2309 11.3079C10.54 11.4236 10.837 11.5154 11.1237 11.5851L12.1933 11.8419C12.5419 11.9218 12.9007 12.0289 13.2681 12.1667C13.6355 12.3027 13.9772 12.4812 14.2914 12.7006C14.6056 12.92 14.8597 13.1937 15.0537 13.5202C15.2477 13.8467 15.3455 14.2378 15.3455 14.6935C15.3455 15.2649 15.1859 15.775 14.8665 16.2239C14.5472 16.6728 14.0871 17.0248 13.4827 17.2799C12.8784 17.535 12.1487 17.6642 11.2868 17.6642C10.0592 17.6642 9.08233 17.3989 8.35609 16.8667C7.62985 16.3361 7.24011 15.6118 7.18689 14.6935H8.84712C8.89691 15.2445 9.15616 15.6543 9.62315 15.9212C10.0901 16.1882 10.6413 16.3225 11.2765 16.3225C11.9787 16.3225 12.5607 16.1729 13.0192 15.8719C13.4776 15.5726 13.7076 15.1747 13.7076 14.6799C13.7076 14.3806 13.6166 14.1324 13.4312 13.9402C13.2475 13.7481 12.9985 13.5899 12.6878 13.4658C12.3753 13.3417 12.0234 13.2328 11.6302 13.1376L10.3339 12.8111C9.45318 12.5901 8.75612 12.2653 8.24621 11.8351C7.73629 11.4066 7.48048 10.8386 7.48048 10.1329C7.48048 9.54798 7.65217 9.03954 7.99383 8.60253C8.33549 8.16722 8.80076 7.82883 9.38794 7.58567C9.97511 7.3425 10.6344 7.22177 11.3658 7.22177C12.0972 7.22177 12.7633 7.3425 13.3333 7.58226C13.9016 7.82373 14.3515 8.15531 14.6794 8.57702C15.0073 9.00043 15.179 9.48166 15.1927 10.0224H13.5977H13.5995Z" fill="white"/>
<path d="M26.004 10.655H24.3334C24.1978 9.99859 23.8647 9.49356 23.3359 9.14327C22.8054 8.79128 22.1908 8.61613 21.492 8.61613C20.8636 8.61613 20.3005 8.76237 19.8009 9.05655C19.3012 9.35072 18.9081 9.78094 18.6196 10.3472C18.3329 10.9134 18.1887 11.6072 18.1887 12.4285C18.1887 13.2498 18.3329 13.9487 18.6231 14.5167C18.9115 15.0846 19.3047 15.5131 19.8026 15.8039C20.3005 16.0947 20.8619 16.2392 21.4868 16.2392C22.1787 16.2392 22.79 16.0658 23.3222 15.7189C23.8544 15.372 24.1909 14.8755 24.3334 14.2293L26.004 14.2344C25.8872 14.901 25.6228 15.4893 25.2108 16.0012C24.8004 16.513 24.2751 16.9126 23.6364 17.2017C22.9977 17.4907 22.2766 17.6353 21.4748 17.6353C20.5254 17.6353 19.679 17.4261 18.9373 17.0095C18.1956 16.5912 17.6101 15.9944 17.1843 15.2155C16.7568 14.4367 16.5456 13.5083 16.5456 12.4285C16.5456 11.3487 16.7585 10.4169 17.1878 9.6398C17.6153 8.8627 18.2007 8.26584 18.9424 7.84753C19.6841 7.43093 20.5288 7.22177 21.4748 7.22177C22.2491 7.22177 22.9548 7.35781 23.5917 7.62818C24.2287 7.89855 24.7592 8.29135 25.1816 8.80318C25.6039 9.31672 25.8769 9.93398 26.0022 10.6567L26.004 10.655Z" fill="white"/>
<path d="M28.2668 17.4958H26.5122L30.4576 7.3595H32.3685L36.3139 17.4958H34.5575L33.5565 14.8125H29.2746L28.2685 17.4958H28.2668ZM29.7536 13.5253H33.0724L31.4551 9.19938H31.3692L29.7519 13.5253H29.7536Z" fill="white"/>
<path d="M46.428 7.3595V17.4958H44.9069L39.3339 10.0615H39.2308V17.4958H37.5775V7.3595H39.1089L44.6871 14.804H44.7884V7.3595H46.4263H46.428Z" fill="white"/>
<path d="M52.2277 7.3595H54.2364L57.7251 15.2393H57.8539L61.3443 7.3595H63.3514V17.4958H61.7787V10.1601H61.6757L58.4428 17.4805H57.1363L53.9034 10.155H53.8021V17.4958H52.2277V7.3595Z" fill="white"/>
<path d="M65.6743 17.4958V7.3595H72.5487V8.67564H67.3294V11.7636H72.1899V13.0747H67.3294V16.178H72.6122V17.4941H65.6743V17.4958Z" fill="white"/>
</g>
<defs>
<clipPath id="clip0_181_4309">
<rect width="80" height="97" fill="white"/>
</clipPath>
</defs>
</svg>
