<svg width="79" height="96" viewBox="0 0 79 96" fill="none" xmlns="http://www.w3.org/2000/svg">
<g clip-path="url(#clip0_181_4322)">
<path d="M5.89441 0H73.1035C76.3566 0 78.9979 2.63471 78.9979 5.87965V90.1183C78.9979 93.3632 76.3566 95.9979 73.1035 95.9979H5.89441C2.64132 96 0 93.3653 0 90.1183V5.87965C0 2.63471 2.64132 0 5.89441 0Z" fill="#989898"/>
<path d="M73.1035 2.93982H5.89441C4.2658 2.93982 2.9472 4.25511 2.9472 5.87965V82.6182L10.338 75.8603H73.1035C74.7301 75.8603 76.0507 74.545 76.0507 72.9205V5.87965C76.0507 4.25511 74.7301 2.93982 73.1035 2.93982Z" fill="white"/>
<path d="M19.4069 83.9253C19.3573 83.5315 19.1548 83.2264 18.7972 83.0079C18.4417 82.7893 18.0036 82.6821 17.4869 82.6821C16.9185 82.6821 16.4618 82.8079 16.1166 83.0573C15.7715 83.3068 15.5999 83.6222 15.5999 84.0036C15.5999 84.2881 15.6929 84.519 15.881 84.6942C16.0691 84.8695 16.2923 85.0055 16.5486 85.1024C16.8069 85.1993 17.0405 85.2735 17.2534 85.3251L18.1214 85.5436C18.3446 85.5972 18.5926 85.6735 18.8654 85.7683C19.1403 85.8632 19.4028 85.9951 19.6549 86.158C19.9071 86.3229 20.1138 86.5332 20.2791 86.7888C20.4424 87.0445 20.525 87.3599 20.525 87.733C20.525 88.1639 20.4052 88.5515 20.1654 88.8999C19.9236 89.2462 19.5743 89.5225 19.1134 89.7286C18.6526 89.9327 18.0945 90.0358 17.4373 90.0358C16.5196 90.0358 15.7901 89.8338 15.2507 89.4297C14.7112 89.0256 14.4157 88.4958 14.3661 87.8443H15.4346C15.4615 88.1453 15.571 88.3927 15.7611 88.5886C15.9513 88.7844 16.1931 88.9287 16.4866 89.0236C16.7801 89.1184 17.0963 89.1658 17.4352 89.1658C17.83 89.1658 18.1855 89.106 18.4996 88.9844C18.8138 88.8648 19.0618 88.6958 19.2457 88.4793C19.4297 88.2628 19.5206 88.0093 19.5206 87.7186C19.5206 87.4547 19.4421 87.2403 19.2829 87.0733C19.1238 86.9084 18.915 86.7723 18.6567 86.6692C18.3963 86.5662 18.1173 86.4755 17.8176 86.3971L16.7656 86.1167C16.098 85.9374 15.5689 85.6817 15.1804 85.3519C14.7918 85.02 14.5955 84.585 14.5955 84.051C14.5955 83.6057 14.7257 83.2161 14.9861 82.8821C15.2465 82.5502 15.5958 82.2904 16.0381 82.1049C16.4783 81.9193 16.9723 81.8266 17.5179 81.8266C18.0635 81.8266 18.5595 81.9173 18.9874 82.1008C19.4152 82.2842 19.7562 82.5337 20.0083 82.8491C20.2605 83.1645 20.3928 83.5253 20.4072 83.9253H19.4049H19.4069Z" fill="white"/>
<path d="M28.697 84.4221H27.6616C27.5789 84.0552 27.4177 83.7439 27.1821 83.4944C26.9444 83.2429 26.6613 83.0512 26.3264 82.9233C25.9916 82.7935 25.6361 82.7296 25.2579 82.7296C24.7392 82.7296 24.2721 82.8512 23.8525 83.0945C23.433 83.3377 23.1023 83.6964 22.8563 84.1706C22.6104 84.6448 22.4864 85.2261 22.4864 85.9147C22.4864 86.6033 22.6104 87.1867 22.8563 87.6609C23.1023 88.135 23.435 88.4938 23.8525 88.737C24.2721 88.9803 24.7392 89.1019 25.2579 89.1019C25.6361 89.1019 25.9916 89.038 26.3264 88.9081C26.6613 88.7783 26.9444 88.5886 27.1821 88.3371C27.4177 88.0856 27.5789 87.7763 27.6616 87.4073H28.697C28.5916 87.9516 28.3746 88.4175 28.0501 88.8051C27.7236 89.1926 27.3206 89.4895 26.8411 89.6957C26.3595 89.9018 25.8325 90.0049 25.2579 90.0049C24.5284 90.0049 23.8815 89.84 23.3131 89.5081C22.7447 89.1762 22.2983 88.704 21.9738 88.0938C21.6494 87.4815 21.4861 86.7558 21.4861 85.9168C21.4861 85.0777 21.6494 84.352 21.9738 83.7397C22.3004 83.1295 22.7468 82.6574 23.3131 82.3255C23.8815 81.9936 24.5284 81.8286 25.2579 81.8286C25.8304 81.8286 26.3595 81.9317 26.8411 82.1379C27.3226 82.344 27.7256 82.6409 28.0501 83.0285C28.3767 83.4161 28.5916 83.882 28.697 84.4262V84.4221Z" fill="white"/>
<path d="M30.1686 89.8956H29.0835L32.2229 81.9358H33.2914L36.4309 89.8956H35.3458L34.486 87.6402H31.0304L30.1706 89.8956H30.1686ZM31.3549 86.7847H34.1595L32.7913 83.1934H32.7231L31.3549 86.7847Z" fill="white"/>
<path d="M44.2164 81.9338V89.8936H43.214L38.5555 83.6428H38.4708V89.8936H37.4353V81.9338H38.4377L43.1127 88.199H43.1974V81.9338H44.2164Z" fill="white"/>
<path d="M49.1208 81.9338H50.3567L53.2626 88.5412H53.3618L56.2677 81.9338H57.5036V89.8936H56.5343V83.8449H56.4516L53.7793 89.8936H52.8451L50.1728 83.8449H50.0901V89.8936H49.1208V81.9338Z" fill="white"/>
<path d="M59.4091 89.8956V81.9358H64.5678V82.7914H60.4446V85.4818H64.3012V86.3373H60.4446V89.0421H64.636V89.8977H59.4091V89.8956Z" fill="white"/>
</g>
<defs>
<clipPath id="clip0_181_4322">
<rect width="79" height="96" fill="white"/>
</clipPath>
</defs>
</svg>
