<svg width="74" height="96" viewBox="0 0 74 96" fill="none" xmlns="http://www.w3.org/2000/svg">
<g clip-path="url(#clip0_181_4335)">
<path d="M74 73.3585C74 85.8611 63.8719 96 51.3825 96H0V23.8143C0 10.6596 10.8157 0 24.1555 0H49.84C63.1798 0 73.9955 10.6596 73.9955 23.8143V73.3585H74Z" fill="#989898"/>
<path d="M24.9743 2.35925H49.0212C61.5061 2.35925 71.6387 12.5026 71.6387 25.0008V50.3593C71.6387 62.8574 61.5061 73.0008 49.0212 73.0008H2.35675V25.0008C2.35675 12.5072 12.4939 2.35925 24.9743 2.35925Z" fill="white"/>
<path d="M8.15136 87.6408C8.15136 87.0521 8.07898 86.9343 7.85733 86.64C7.38688 86.074 6.91644 85.7208 6.351 85.0279C6.03436 84.6611 6.03436 84.3215 6.03436 83.7691V82.32C6.03436 81.2468 6.54099 80.717 7.54068 80.717C8.6218 80.717 9.01082 81.2332 9.01082 82.32V84.086H8.17397V82.4377C8.17397 81.9532 8.04279 81.6272 7.5633 81.6272C7.15166 81.6272 6.93906 81.8626 6.93906 82.32V83.7555C6.93906 84.1675 6.97524 84.2853 7.15166 84.5072C7.62211 85.1094 8.11517 85.4853 8.6218 86.083C8.96106 86.4951 9.04701 86.8619 9.04701 87.6272V89.0174C9.04701 90.0543 8.6218 90.6204 7.54068 90.6204C6.45956 90.6204 6.03436 90.0543 6.03436 89.0174V86.957H6.89382V88.886C6.89382 89.3932 7.04762 89.7328 7.51806 89.7328C7.98851 89.7328 8.15136 89.4838 8.15136 89.0128V87.6362V87.6408Z" fill="white"/>
<path d="M13.9822 86.9569H14.7919V88.9584C14.7919 90.0905 14.3667 90.6203 13.3805 90.6203C12.3944 90.6203 11.838 90.0769 11.838 88.9856V82.3924C11.838 81.2739 12.3537 80.7215 13.3805 80.7215C14.3214 80.7215 14.7919 81.2739 14.7919 82.3698V84.0905H13.9822V82.3834C13.9822 81.8671 13.8419 81.6317 13.3805 81.6317C12.9553 81.6317 12.7472 81.8807 12.7472 82.3834V88.9766C12.7472 89.4837 12.9598 89.7418 13.3805 89.7418C13.8012 89.7418 13.9822 89.4928 13.9822 88.9766V86.9615V86.9569Z" fill="white"/>
<path d="M19.9939 90.5117L19.7813 88.886H18.3338L18.1212 90.5117H17.2526L18.5826 80.8211H19.6275L20.885 90.5117H19.9894H19.9939ZM19.6772 88.0664C19.4782 86.4045 19.2656 84.7834 19.0756 83.0989C18.8766 84.7834 18.664 86.4091 18.4423 88.0664H19.6772Z" fill="white"/>
<path d="M26.0147 90.5117L24.3455 83.434C24.3591 84.883 24.3591 86.2823 24.3591 87.7313V90.5117H23.581V80.8211H24.6531L26.1368 87.9215C26.1232 86.5902 26.1232 85.3087 26.1232 84V80.8211H26.9103V90.5117H26.0147Z" fill="white"/>
<path d="M37.2103 90.5117V87.5819C37.2103 86.1691 37.2239 84.8015 37.233 83.3887L36.188 90.5117H35.4009L34.3651 83.3887C34.3786 84.8015 34.3877 86.1691 34.3877 87.5819V90.5117H33.5644V80.8211H34.7631L35.7854 88.3925L36.8078 80.8211H38.0427V90.5117H37.2058H37.2103Z" fill="white"/>
<path d="M41.0101 90.5117V80.8211H43.5749V81.7268H41.9057V85.1276H43.0818V86.0242H41.9057V89.6287H43.6337V90.5117H41.0101Z" fill="white"/>
</g>
<defs>
<clipPath id="clip0_181_4335">
<rect width="74" height="96" fill="white"/>
</clipPath>
</defs>
</svg>
