<svg width="74" height="95" viewBox="0 0 74 95" fill="none" xmlns="http://www.w3.org/2000/svg">
<g clip-path="url(#clip0_181_4387)">
<path d="M74 95H0V23.566C0 10.5492 10.8135 0 24.1581 0H49.8419C63.182 0 74 10.5492 74 23.566V95Z" fill="#989898"/>
<path d="M49.3971 2.33545H24.5985C12.3151 2.33545 2.35754 12.1998 2.35754 24.368V50.2078C2.35754 62.3761 12.3151 72.2404 24.5985 72.2404H49.3971C61.6804 72.2404 71.638 62.3761 71.638 50.2078V24.368C71.638 12.1998 61.6804 2.33545 49.3971 2.33545Z" fill="white"/>
<path d="M20.3149 84.4155C20.3149 83.8339 20.2437 83.7149 20.0213 83.4241C19.5498 82.8645 19.0783 82.5163 18.5178 81.8289C18.202 81.4676 18.202 81.1283 18.202 80.5819V79.1498C18.202 78.0878 18.7091 77.5634 19.7055 77.5634C20.7864 77.5634 21.1778 78.0746 21.1778 79.1498V80.8991H20.3415V79.2687C20.3415 78.7928 20.2125 78.4668 19.7277 78.4668C19.314 78.4668 19.1049 78.7003 19.1049 79.1542V80.5775C19.1049 80.9873 19.1405 81.1018 19.3185 81.3222C19.79 81.917 20.2837 82.2872 20.7908 82.8821C21.1333 83.2919 21.2134 83.6488 21.2134 84.4067V85.7816C21.2134 86.8083 20.7908 87.3679 19.7099 87.3679C18.629 87.3679 18.2064 86.8083 18.2064 85.7816V83.7413H19.0649V85.6538C19.0649 86.1561 19.2162 86.491 19.6877 86.491C20.1592 86.491 20.3237 86.2442 20.3237 85.7816V84.4199L20.3149 84.4155Z" fill="white"/>
<path d="M26.1509 83.7414H26.9604V85.7243C26.9604 86.8435 26.5379 87.3679 25.5504 87.3679C24.5629 87.3679 24.0113 86.8303 24.0113 85.7507V79.2247C24.0113 78.1186 24.5273 77.5722 25.5504 77.5722C26.4934 77.5722 26.9604 78.1186 26.9604 79.2027V80.9036H26.1509V79.2159C26.1509 78.7047 26.0085 78.4712 25.5504 78.4712C25.1278 78.4712 24.9143 78.7179 24.9143 79.2159V85.7419C24.9143 86.2443 25.1278 86.4998 25.5504 86.4998C25.9729 86.4998 26.1509 86.2531 26.1509 85.7419V83.7502V83.7414Z" fill="white"/>
<path d="M32.1604 87.2577L31.9469 85.6494H30.5012L30.2877 87.2577H29.4158L30.7458 77.6692H31.7912L33.05 87.2577H32.1559H32.1604ZM31.8401 84.8342C31.6399 83.1905 31.4264 81.5821 31.2396 79.9165C31.0394 81.5821 30.8259 83.1905 30.6035 84.8342H31.8401Z" fill="white"/>
<path d="M38.1832 87.2577L36.5151 80.2558C36.5285 81.6879 36.5285 83.076 36.5285 84.5081V87.2577H35.7545V77.6692H36.8265L38.3078 84.6931C38.2944 83.3756 38.2944 82.1065 38.2944 80.8154V77.6692H39.0817V87.2577H38.1877H38.1832Z" fill="white"/>
<path d="M49.3793 87.2577V84.3582C49.3793 82.9614 49.3926 81.6086 49.4015 80.2117L48.3562 87.2621H47.5689L46.5325 80.2117C46.5458 81.6086 46.5547 82.9614 46.5547 84.3582V87.2577H45.7318V77.6692H46.9328L47.9559 85.1602L48.979 77.6692H50.2156V87.2577H49.3793Z" fill="white"/>
<path d="M53.178 87.2577V77.6692H55.7402V78.5681H54.0721V81.9347H55.2464V82.8204H54.0721V86.3852H55.8025V87.2577H53.178Z" fill="white"/>
</g>
<defs>
<clipPath id="clip0_181_4387">
<rect width="74" height="95" fill="white"/>
</clipPath>
</defs>
</svg>
