<svg width="69" height="93" viewBox="0 0 69 93" fill="none" xmlns="http://www.w3.org/2000/svg">
<g clip-path="url(#clip0_181_4439)">
<path d="M69 93L34.8421 83.0917C34.6213 83.0271 34.3831 83.0271 34.1579 83.0917L0 93V3.23096C0 1.44747 1.45518 0 3.24818 0H65.7518C67.5448 0 69 1.44747 69 3.23096V93Z" fill="#989898"/>
<path d="M26.9686 6.71609H23.9543V9.71443H26.9686H29.9785V6.71609H26.9686Z" fill="#989898"/>
<path d="M45.0457 6.71609H42.0314V9.71443H45.0457V6.71609Z" fill="#989898"/>
<path d="M39.0215 9.71443H36.0072V6.71609H32.9929V9.71443H29.9785V12.7128V15.7068H26.9686V18.7051H29.9785V21.7035H32.9929H36.0072V18.7051H32.9929V15.7068V12.7128H36.0072H39.0215H42.0315V9.71443H39.0215Z" fill="#989898"/>
<path d="M45.0457 15.7068V12.7128H42.0314V15.7068V18.7051H45.0457V15.7068Z" fill="#989898"/>
<path d="M23.9543 21.7034V24.7018H26.9686V21.7034V18.7051H23.9543V21.7034Z" fill="#989898"/>
<path d="M42.0358 18.7051H39.0215V21.7034H42.0358V18.7051Z" fill="#989898"/>
<path d="M29.9829 39.6891H26.9686V42.6875H29.9829V39.6891Z" fill="#989898"/>
<path d="M8.88702 24.7018H5.87271V27.7001H8.88702V24.7018Z" fill="#989898"/>
<path d="M39.0215 27.7001H42.0315V30.6941H45.0458V27.7001H48.0601V24.7018H45.0458V21.7034H42.0315V24.7018H39.0215H36.0072H32.9929H29.9785V27.7001H32.9929H36.0072V30.6941H39.0215V27.7001Z" fill="#989898"/>
<path d="M60.113 27.7001V24.7018H57.0987V27.7001V30.6941H60.113V27.7001Z" fill="#989898"/>
<path d="M8.88702 30.6941H5.87271V33.6925H8.88702V30.6941Z" fill="#989898"/>
<path d="M20.9399 33.6925H23.9543V30.6941H26.9686V27.7001H23.9543H20.9399V24.7018H17.9256V27.7001V30.6941H20.9399V33.6925Z" fill="#989898"/>
<path d="M36.0072 30.6941H32.9929V33.6925H36.0072V30.6941Z" fill="#989898"/>
<path d="M54.0887 30.6941V27.7001V24.7018H51.0744V27.7001V30.6941H48.0601H45.0457V33.6925H48.0601H51.0744V36.6908H54.0887V33.6925H57.0987V30.6941H54.0887Z" fill="#989898"/>
<path d="M20.9399 33.6925H17.9256V30.6941H14.9113V27.7001V24.7018H11.9013V27.7001H8.88702V30.6941H11.9013V33.6925H14.9113V36.6908H17.9256V39.6891H20.9399V36.6908V33.6925Z" fill="#989898"/>
<path d="M26.9686 36.6908H29.9785V39.6891H32.9929V36.6908V33.6925H29.9785V30.6941H26.9686V33.6925V36.6908Z" fill="#989898"/>
<path d="M60.113 33.6925H57.0987V36.6908V39.6891H54.0887V42.6832H57.0987V45.6815H60.113V48.6798V51.6782H63.1273V48.6798V45.6815V42.6832H60.113V39.6891H63.1273V36.6908H60.113V33.6925Z" fill="#989898"/>
<path d="M8.88702 36.6908H5.87271V39.6891V42.6832H8.88702V45.6815H11.9013V42.6832V39.6891H8.88702V36.6908Z" fill="#989898"/>
<path d="M14.9156 36.6908H11.9013V39.6891H14.9156V36.6908Z" fill="#989898"/>
<path d="M45.0457 36.6908V33.6925H42.0314H39.0215H36.0071V36.6908V39.6891H39.0215V36.6908H42.0314V39.6891H45.0457V42.6832H48.0601V39.6891H51.0744V36.6908H48.0601H45.0457Z" fill="#989898"/>
<path d="M17.9256 39.6891H14.9113V42.6875H17.9256V39.6891Z" fill="#989898"/>
<path d="M23.9543 39.6891H20.9399V42.6832V45.6815H23.9543V48.6798V51.6782H26.9686V48.6798V45.6815V42.6832H23.9543V39.6891Z" fill="#989898"/>
<path d="M36.0072 39.6891H32.9929V42.6875H36.0072V39.6891Z" fill="#989898"/>
<path d="M32.9929 42.6832H29.9785V45.6815H32.9929V42.6832Z" fill="#989898"/>
<path d="M42.0314 48.6798V45.6815V42.6832H39.0215V45.6815H36.0071V48.6798H39.0215H42.0314Z" fill="#989898"/>
<path d="M32.9929 48.6798H29.9785V51.6781H32.9929V48.6798Z" fill="#989898"/>
<path d="M39.0215 51.6782H36.0071V54.6765H39.0215V51.6782Z" fill="#989898"/>
<path d="M54.145 51.6782V42.6832H42.0314V54.7325H45.0501V57.6748H48.0644V54.7325H51.0787V57.6748H54.093V54.7325H54.1493V54.6765H57.1073V57.6748H63.1359V54.6765H60.1216V51.6782H54.1493H54.145ZM44.3485 44.9879H51.8799V52.4794H44.3485V44.9879Z" fill="#989898"/>
<path d="M26.9686 57.6705V60.6689H29.9785V57.6705V54.6765V51.6782H26.9686V54.6765V57.6705Z" fill="#989898"/>
<path d="M39.0215 57.6705V60.6688H42.0314H45.0457V57.6705H42.0314H39.0215Z" fill="#989898"/>
<path d="M26.9686 60.6689H23.9543V63.6672H26.9686V60.6689Z" fill="#989898"/>
<path d="M32.9929 63.6672H36.0072V60.6689H32.9929H29.9785V63.6672H32.9929Z" fill="#989898"/>
<path d="M57.0987 60.6689V63.6672H60.113H63.1273V60.6689H60.113H57.0987Z" fill="#989898"/>
<path d="M49.6235 47.2367H46.6092V50.235H49.6235V47.2367Z" fill="#989898"/>
<path d="M20.9399 6.71609H5.87271V21.7035H20.9399V6.71609ZM18.6792 19.4547H8.13344V8.96484H18.6792V19.4547Z" fill="#989898"/>
<path d="M16.4228 11.2136H10.3942V17.2103H16.4228V11.2136Z" fill="#989898"/>
<path d="M48.0601 6.71609V21.7035H63.1273V6.71609H48.0601ZM60.8665 19.4547H50.3208V8.96484H60.8665V19.4547Z" fill="#989898"/>
<path d="M58.6102 11.2136H52.5815V17.2103H58.6102V11.2136Z" fill="#989898"/>
<path d="M5.87271 63.706H20.9399V48.7186H5.87271V63.706ZM8.13344 50.9673H18.6792V61.4572H8.13344V50.9673Z" fill="#989898"/>
<path d="M16.4228 53.2118H10.3942V59.2085H16.4228V53.2118Z" fill="#989898"/>
<path d="M17.7957 77.0261C17.7957 76.4403 17.7264 76.3239 17.5012 76.031C17.0291 75.4667 16.5571 75.1177 15.994 74.4241C15.6779 74.0623 15.6779 73.7219 15.6779 73.1705V71.7274C15.6779 70.659 16.1846 70.1334 17.185 70.1334C18.2678 70.1334 18.6576 70.6504 18.6576 71.7274V73.485H17.8217V71.8437C17.8217 71.3655 17.6918 71.0338 17.211 71.0338C16.7996 71.0338 16.5874 71.2664 16.5874 71.7231V73.1533C16.5874 73.5625 16.622 73.6789 16.7996 73.9029C17.2717 74.5017 17.7654 74.8765 18.2721 75.471C18.6142 75.8802 18.6965 76.2464 18.6965 77.0046V78.3875C18.6965 79.4171 18.2721 79.9814 17.1894 79.9814C16.1066 79.9814 15.6822 79.4171 15.6822 78.3875V76.3369H16.5441V78.2582C16.5441 78.7622 16.6956 79.1026 17.1677 79.1026C17.6398 79.1026 17.8044 78.857 17.8044 78.3875V77.0175L17.7957 77.0261Z" fill="white"/>
<path d="M23.6338 76.3455H24.448V78.3358C24.448 79.4601 24.0235 79.99 23.0361 79.99C22.0486 79.99 21.4943 79.4515 21.4943 78.3616V71.8006C21.4943 70.6891 22.014 70.1377 23.0361 70.1377C23.9802 70.1377 24.448 70.6891 24.448 71.7791V73.4893H23.6338V71.792C23.6338 71.275 23.4908 71.0424 23.0318 71.0424C22.6073 71.0424 22.3951 71.2879 22.3951 71.792V78.353C22.3951 78.857 22.6073 79.1155 23.0318 79.1155C23.4562 79.1155 23.6338 78.8699 23.6338 78.353V76.3498V76.3455Z" fill="white"/>
<path d="M29.6537 79.8823L29.4415 78.2668H27.9907L27.7784 79.8823H26.9079L28.2375 70.2368H29.2856L30.5459 79.8823H29.6494H29.6537ZM29.3376 77.444C29.1383 75.7897 28.9261 74.1743 28.7356 72.4985C28.5363 74.1743 28.3241 75.7897 28.0989 77.444H29.3376Z" fill="white"/>
<path d="M35.6823 79.8823L34.0106 72.8388C34.0236 74.282 34.0236 75.6734 34.0236 77.1166V79.8823H33.2484V70.2368H34.3224L35.8079 77.3018C35.7949 75.9793 35.7949 74.6998 35.7949 73.3988V70.2368H36.5832V79.8823H35.6867H35.6823Z" fill="white"/>
<path d="M46.8951 79.8823V76.9658C46.8951 75.5614 46.9081 74.2001 46.9167 72.7957L45.8686 79.8866H45.0804L44.0453 72.7957C44.0583 74.2001 44.067 75.5614 44.067 76.9658V79.8823H43.2441V70.2368H44.4438L45.4702 77.7714L46.4966 70.2368H47.7353V79.8823H46.8994H46.8951Z" fill="white"/>
<path d="M50.7019 79.8823V70.2368H53.2701V71.1372H51.5984V74.5232H52.7764V75.4149H51.5984V78.9992H53.3308V79.878H50.7019V79.8823Z" fill="white"/>
</g>
<defs>
<clipPath id="clip0_181_4439">
<rect width="69" height="93" fill="white"/>
</clipPath>
</defs>
</svg>
