<svg width="71" height="94" viewBox="0 0 71 94" fill="none" xmlns="http://www.w3.org/2000/svg">
<g clip-path="url(#clip0_181_4528)">
<path d="M67.6593 0H3.345C1.49679 0 0 1.41219 0 3.14791V85.6406L4.43831 94L8.87663 85.6406L13.3149 94L17.7533 85.6406L22.1916 94L26.6299 85.6406L31.0682 94L35.5065 85.6406L39.9448 94L44.3831 85.6406L48.8214 94L53.2598 85.6406L57.6981 94L62.1364 85.6406L66.5747 94L71.013 85.6406V3.14791C71.013 1.40781 69.5162 0 67.668 0H67.6593Z" fill="#989898"/>
<path d="M66.2016 3.48456H4.79842C4.07958 3.48456 3.49686 4.07179 3.49686 4.79619V67.8724C3.49686 68.5968 4.07958 69.184 4.79842 69.184H66.2016C66.9204 69.184 67.5032 68.5968 67.5032 67.8724V4.79619C67.5032 4.07179 66.9204 3.48456 66.2016 3.48456Z" fill="white"/>
<path d="M18.3086 79.7426C18.3086 79.1305 18.2348 79.0081 18.0049 78.702C17.519 78.1162 17.0331 77.7489 16.4517 77.0275C16.1263 76.6471 16.1263 76.293 16.1263 75.7203V74.2163C16.1263 73.1058 16.6469 72.5549 17.6795 72.5549C18.7945 72.5549 19.1937 73.0926 19.1937 74.2163V76.0482H18.3346V74.3387C18.3346 73.8359 18.2001 73.4949 17.7055 73.4949C17.2804 73.4949 17.0634 73.7397 17.0634 74.2163V75.7072C17.0634 76.1356 17.0981 76.258 17.2804 76.4898C17.7663 77.115 18.2739 77.5041 18.7945 78.1249C19.1459 78.5534 19.2327 78.9294 19.2327 79.7251V81.1679C19.2327 82.2434 18.7945 82.8293 17.6795 82.8293C16.5645 82.8293 16.1263 82.2434 16.1263 81.1679V79.0299H17.0114V81.0324C17.0114 81.557 17.1676 81.9112 17.6535 81.9112C18.1394 81.9112 18.3086 81.6532 18.3086 81.1679V79.7382V79.7426Z" fill="white"/>
<path d="M24.3218 79.0343H25.1591V81.111C25.1591 82.2828 24.7209 82.8337 23.7057 82.8337C22.6905 82.8337 22.1178 82.2697 22.1178 81.1373V74.2949C22.1178 73.1363 22.6515 72.5592 23.7057 72.5592C24.6776 72.5592 25.1591 73.132 25.1591 74.2687V76.0525H24.3218V74.2818C24.3218 73.7441 24.1743 73.4992 23.7014 73.4992C23.2632 73.4992 23.0463 73.7572 23.0463 74.2818V81.1242C23.0463 81.6488 23.2632 81.9199 23.7014 81.9199C24.1396 81.9199 24.3218 81.6619 24.3218 81.1242V79.0343Z" fill="white"/>
<path d="M30.5129 82.7244L30.2959 81.0367H28.8035L28.5866 82.7244H27.6885L29.0595 72.6685H30.1397L31.437 82.7244H30.5172H30.5129ZM30.1875 80.1798C29.9792 78.4572 29.7623 76.7696 29.5671 75.0251C29.3631 76.7739 29.1419 78.4572 28.9119 80.1798H30.1831H30.1875Z" fill="white"/>
<path d="M36.717 82.7244L34.9946 75.3836C35.0076 76.8876 35.0076 78.3391 35.0076 79.8431V82.7244H34.2093V72.6685H35.3113L36.8384 80.0355C36.8254 78.6539 36.8254 77.3248 36.8254 75.9695V72.6729H37.6367V82.7287H36.717V82.7244Z" fill="white"/>
<path d="M48.2574 82.7244V79.6814C48.2574 78.2167 48.2705 76.8002 48.2835 75.3312L47.2032 82.72H46.3919L45.3246 75.3312C45.3376 76.7958 45.3506 78.2124 45.3506 79.6814V82.7244H44.5003V72.6685H45.7368L46.791 80.5252L47.8453 72.6685H49.1165V82.7244H48.2574Z" fill="white"/>
<path d="M52.1708 82.7244V72.6685H54.813V73.6085H53.0906V77.1368H54.301V78.0637H53.0906V81.8019H54.8737V82.72H52.1708V82.7244Z" fill="white"/>
</g>
<defs>
<clipPath id="clip0_181_4528">
<rect width="71" height="94" fill="white"/>
</clipPath>
</defs>
</svg>
