<svg width="73" height="88" viewBox="0 0 73 88" fill="none" xmlns="http://www.w3.org/2000/svg">
<g clip-path="url(#clip0_181_4285)">
<path d="M72.6406 66.4692H0.359375V47.4143L36.4991 29.1584L72.6406 47.4143V66.4692Z" fill="#989898"/>
<path d="M72.6406 66.8275H0.359383C0.161218 66.8275 0 66.666 0 66.4676V47.4127C0 47.2764 0.0755711 47.152 0.196485 47.0914L36.3379 28.8371C36.4404 28.785 36.5596 28.785 36.6621 28.8371L72.8035 47.0914C72.9244 47.152 73.0017 47.2764 73.0017 47.4127V66.4676C73.0017 66.666 72.8405 66.8275 72.6423 66.8275H72.6406ZM0.717086 66.1093H72.2796V47.6364L36.4975 29.5621L0.717086 47.6347V66.1076V66.1093Z" fill="white"/>
<path d="M13.7539 0.47937H59.246C61.8893 0.47937 64.0356 2.62891 64.0356 5.27631V62.4999C64.0356 65.1473 61.8893 67.2968 59.246 67.2968H13.7539C11.1106 67.2968 8.96439 65.1473 8.96439 62.4999V5.27631C8.96439 2.62891 11.1106 0.47937 13.7539 0.47937Z" fill="white"/>
<path d="M59.2444 67.7778H13.7539C10.8486 67.7778 8.48578 65.4113 8.48578 62.4998V5.2763C8.48578 2.36651 10.8486 0 13.7539 0H59.246C62.1513 0 64.5159 2.36651 64.5159 5.2763V62.4998C64.5159 65.4096 62.153 67.7778 59.246 67.7778H59.2444ZM13.7539 0.958715C11.3776 0.958715 9.44301 2.89633 9.44301 5.2763V62.4998C9.44301 64.8815 11.3776 66.8174 13.7539 66.8174H59.246C61.6223 66.8174 63.557 64.8815 63.557 62.4998V5.2763C63.557 2.89633 61.6223 0.958715 59.246 0.958715H13.7539Z" fill="#989898"/>
<path d="M69.7286 87.6401H3.2697C1.66256 87.6401 0.359375 86.3349 0.359375 84.7252V47.4144L36.4991 62.5755L72.6406 47.4144V84.7252C72.6406 86.3349 71.3374 87.6401 69.7303 87.6401H69.7286Z" fill="#989898"/>
<path d="M69.7286 88H3.26971C1.46608 88 0 86.53 0 84.7252V47.4144C0 47.2933 0.0587775 47.1822 0.159539 47.115C0.2603 47.0494 0.386252 47.0359 0.49709 47.083L36.4992 62.187L72.5012 47.083C72.6104 47.0376 72.738 47.0494 72.8388 47.115C72.9395 47.1822 73 47.2949 73 47.4144V84.7252C73 86.5316 71.5322 88 69.7303 88H69.7286ZM0.717086 47.9543V84.7235C0.717086 86.133 1.86241 87.2784 3.26971 87.2784H69.7286C71.1359 87.2784 72.2796 86.1313 72.2796 84.7235V47.9543L36.6369 62.9052C36.5479 62.9422 36.4471 62.9422 36.3598 62.9052L0.717086 47.9543Z" fill="white"/>
<path d="M52.4312 63.9346L36.4991 54.9058L20.5671 63.9346H52.4312Z" fill="#989898"/>
<path d="M52.4312 64.2945C52.3708 64.2945 52.3103 64.2794 52.2549 64.2474L36.4991 55.3179L20.7434 64.2474C20.5721 64.345 20.3521 64.2844 20.2547 64.1112C20.1573 63.9379 20.2178 63.7193 20.3908 63.62L36.3245 54.5913C36.4337 54.5291 36.568 54.5291 36.6788 54.5913L52.6109 63.62C52.7839 63.7176 52.8443 63.9379 52.7469 64.1112C52.6798 64.2289 52.5588 64.2945 52.4346 64.2945H52.4312Z" fill="white"/>
<path d="M13.6129 73.0508C13.5591 72.6067 13.3375 72.2602 12.9495 72.0147C12.5616 71.7691 12.0729 71.6463 11.4818 71.6463C10.8487 71.6463 10.3465 71.7809 9.97539 72.05C9.60425 72.3191 9.41784 72.6589 9.41784 73.0693C9.41784 73.3771 9.51692 73.626 9.71676 73.8177C9.91493 74.0112 10.1601 74.1609 10.4506 74.2719C10.7395 74.3812 11.0199 74.4687 11.287 74.5343L12.2912 74.7798C12.6204 74.8555 12.9562 74.9581 13.3005 75.0876C13.6465 75.2171 13.9655 75.387 14.2594 75.5956C14.555 75.8041 14.7935 76.0632 14.9748 76.3726C15.1579 76.6821 15.2486 77.0538 15.2486 77.4861C15.2486 78.0277 15.0991 78.5121 14.7985 78.9376C14.4979 79.3632 14.0663 79.6979 13.5004 79.9401C12.9344 80.1823 12.2476 80.3034 11.4415 80.3034C10.2894 80.3034 9.3725 80.0511 8.69068 79.5465C8.00886 79.0436 7.64444 78.3557 7.59238 77.4844H9.14914C9.19616 78.0075 9.43799 78.396 9.87798 78.65C10.3163 78.904 10.8335 79.0301 11.4297 79.0301C12.0897 79.0301 12.6355 78.8872 13.0654 78.6029C13.4953 78.3187 13.7103 77.9402 13.7103 77.471C13.7103 77.1867 13.6246 76.9512 13.4517 76.7696C13.2787 76.5862 13.0469 76.4365 12.753 76.3188C12.4592 76.2011 12.13 76.0968 11.7605 76.006L10.5447 75.6965C9.71844 75.4862 9.06349 75.1784 8.58488 74.7714C8.10626 74.3644 7.86611 73.8262 7.86611 73.1567C7.86611 72.6017 8.02733 72.119 8.34809 71.7052C8.66885 71.2914 9.10548 70.9702 9.65631 70.7398C10.2071 70.5093 10.8251 70.395 11.512 70.395C12.1989 70.395 12.8236 70.5093 13.3576 70.7381C13.8916 70.9668 14.3132 71.2813 14.6222 71.6817C14.9295 72.082 15.0907 72.5395 15.1041 73.0524H13.6078L13.6129 73.0508Z" fill="white"/>
<path d="M19.8198 80.2899C19.0725 80.2899 18.431 80.1318 17.8936 79.8122C17.3562 79.496 16.943 79.0554 16.6542 78.4953C16.367 77.9352 16.2226 77.2927 16.2226 76.5694C16.2226 75.8462 16.3704 75.1852 16.6643 74.6251C16.9598 74.065 17.3746 73.626 17.912 73.3098C18.4494 72.9936 19.0809 72.8355 19.803 72.8355C20.3891 72.8355 20.9114 72.9364 21.3698 73.1382C21.83 73.3401 22.1994 73.6226 22.4832 73.9859C22.7654 74.3492 22.935 74.7731 22.9887 75.2592H21.5277C21.4471 74.9211 21.264 74.6301 20.9769 74.3846C20.6897 74.1407 20.3085 74.0179 19.8299 74.0179C19.2035 74.0179 18.6996 74.245 18.3151 74.6974C17.9322 75.1498 17.7407 75.7621 17.7407 76.5358C17.7407 77.3095 17.9305 77.9469 18.3084 78.4078C18.6879 78.8703 19.1951 79.1008 19.8315 79.1008C20.2598 79.1008 20.6276 78.9914 20.9315 78.7711C21.2355 78.5524 21.4353 78.248 21.5294 77.8595H22.9904C22.9367 78.3254 22.7754 78.7425 22.5034 79.1092C22.2313 79.4758 21.8686 79.7651 21.4152 79.9737C20.9617 80.184 20.4294 80.2882 19.8215 80.2882L19.8198 80.2899Z" fill="white"/>
<path d="M26.4549 80.3034C25.9662 80.3034 25.5246 80.2193 25.1316 80.0494C24.7386 79.8812 24.4263 79.6323 24.1945 79.3043C23.9628 78.978 23.8486 78.5777 23.8486 78.1051C23.8486 77.6947 23.9325 77.3583 24.1022 77.0959C24.2718 76.8318 24.4985 76.6249 24.7806 76.4702C25.0627 76.3171 25.3801 76.2011 25.7328 76.1254C26.0838 76.048 26.4432 75.9892 26.8076 75.9488C27.2694 75.8983 27.6439 75.858 27.9311 75.8243C28.2166 75.7907 28.4265 75.7369 28.5592 75.6629C28.6918 75.5872 28.7573 75.4644 28.7573 75.2962V75.2625C28.7573 74.8522 28.6347 74.5343 28.3879 74.3089C28.141 74.0835 27.7749 73.9708 27.2896 73.9708C26.8042 73.9708 26.3861 74.0734 26.0956 74.2803C25.8067 74.4872 25.6069 74.7193 25.496 74.9749L24.0837 74.6739C24.3356 74.0162 24.7537 73.5453 25.3415 73.261C25.9293 72.9751 26.5708 72.8338 27.2677 72.8338C27.5751 72.8338 27.9025 72.8674 28.2468 72.9347C28.5928 73.002 28.9186 73.1265 29.2242 73.3064C29.5315 73.4864 29.7801 73.7421 29.9732 74.07C30.1663 74.398 30.262 74.8269 30.262 75.3517V80.1419H28.7943V79.1546H28.7338C28.5894 79.4237 28.3341 79.6827 27.9664 79.93C27.5969 80.1772 27.0931 80.3017 26.4533 80.3017L26.4549 80.3034ZM26.7807 79.1765C27.1989 79.1765 27.5566 79.1008 27.8505 78.946C28.146 78.793 28.3711 78.5911 28.5273 78.3422C28.6834 78.0933 28.7607 77.8275 28.7607 77.5416V76.6115C28.6902 76.6771 28.5357 76.7359 28.2989 76.7847C28.0604 76.8352 27.8085 76.8772 27.5448 76.9109C27.2795 76.9462 27.0662 76.9748 26.9016 76.995C26.4667 77.0488 26.0939 77.1564 25.7832 77.3162C25.4742 77.4777 25.3197 77.7468 25.3197 78.1219C25.3197 78.47 25.4574 78.7307 25.7311 78.909C26.0049 79.0856 26.3559 79.1748 26.7807 79.1748V79.1765Z" fill="white"/>
<path d="M33.3554 75.8596V80.1436H31.8541V72.928H33.2966V74.102H33.3924C33.5704 73.7202 33.8491 73.4141 34.2287 73.182C34.6082 72.9499 35.0885 72.8338 35.6679 72.8338C36.4589 72.8338 37.0937 73.0642 37.574 73.5251C38.0559 73.9859 38.2944 74.6604 38.2944 75.5535V80.1419H36.7931V75.7217C36.7931 75.1986 36.647 74.7899 36.3564 74.4939C36.0642 74.1979 35.6645 74.0499 35.1557 74.0499C34.6468 74.0499 34.2035 74.2063 33.8643 74.5225C33.5267 74.837 33.3571 75.2827 33.3571 75.858L33.3554 75.8596Z" fill="white"/>
<path d="M43.4836 80.1436V72.928H44.9262V74.102H45.0219C45.1831 73.7051 45.4451 73.3939 45.8112 73.1702C46.1773 72.9465 46.6139 72.8338 47.1228 72.8338C47.6316 72.8338 48.0716 72.9465 48.4209 73.1719C48.7719 73.3973 49.0289 73.7084 49.1968 74.102H49.2774C49.4638 73.7168 49.7577 73.409 50.1591 73.1786C50.5587 72.9482 51.0374 72.8338 51.5932 72.8338C52.2935 72.8338 52.8645 73.0407 53.3095 73.4511C53.7529 73.8632 53.9762 74.4804 53.9762 75.3046V80.1419H52.4749V75.4358C52.4749 74.948 52.3338 74.5931 52.05 74.3745C51.7662 74.1541 51.4253 74.0448 51.0273 74.0448C50.5369 74.0448 50.1591 74.1861 49.887 74.467C49.6166 74.7479 49.4806 75.1078 49.4806 75.5418V80.1402H47.9843V75.345C47.9843 74.9531 47.8533 74.6385 47.593 74.4014C47.331 74.1642 46.9918 74.0448 46.5736 74.0448C46.1555 74.0448 45.7776 74.1979 45.4636 74.5057C45.1479 74.8135 44.9917 75.2087 44.9917 75.6948V80.1436H43.4903H43.4836Z" fill="white"/>
<path d="M58.8464 80.2899C58.0907 80.2899 57.4374 80.1369 56.8882 79.8291C56.3391 79.5213 55.9159 79.0907 55.6186 78.5356C55.3231 77.9789 55.1753 77.3297 55.1753 76.5846C55.1753 75.8395 55.3231 75.1953 55.6186 74.6301C55.9159 74.0667 56.3307 73.6277 56.8647 73.3115C57.3988 72.9953 58.0252 72.8372 58.7406 72.8372C59.3233 72.8372 59.8758 72.9599 60.3964 73.2005C60.917 73.4443 61.3402 73.8295 61.6677 74.361C61.9935 74.8908 62.1581 75.5922 62.1581 76.4618V76.9596H56.6716C56.6918 77.656 56.9017 78.1908 57.2997 78.5659C57.6977 78.941 58.22 79.1294 58.8615 79.1294C59.2897 79.1294 59.6609 79.0436 59.9715 78.872C60.2839 78.6988 60.5056 78.4431 60.6399 78.1017L62.0623 78.3405C61.891 78.9258 61.5233 79.3968 60.9573 79.755C60.3914 80.1116 59.6877 80.2899 58.8464 80.2899ZM56.6766 75.9067H60.6853C60.6819 75.355 60.5039 74.8992 60.1529 74.5376C59.8019 74.176 59.3334 73.9943 58.7506 73.9943C58.3459 73.9943 57.9916 74.0835 57.6876 74.2601C57.3853 74.4367 57.1452 74.6705 56.9689 74.9598C56.7925 75.2491 56.6951 75.5636 56.675 75.9051L56.6766 75.9067Z" fill="white"/>
<path d="M64.3983 80.2327C64.1246 80.2327 63.8878 80.1402 63.6896 79.9586C63.4915 79.7752 63.3941 79.5532 63.3941 79.2942C63.3941 79.0352 63.4932 78.8165 63.6896 78.6349C63.8878 78.4515 64.1229 78.3607 64.3983 78.3607C64.6737 78.3607 64.9089 78.4515 65.107 78.6349C65.3052 78.8182 65.4026 79.0369 65.4026 79.2942C65.4026 79.5515 65.3035 79.7752 65.107 79.9586C64.9089 80.1419 64.6737 80.2327 64.3983 80.2327ZM65.2279 70.5245L65.0969 77.3768H63.7048L63.5738 70.5245H65.2263H65.2279Z" fill="white"/>
</g>
<defs>
<clipPath id="clip0_181_4285">
<rect width="73" height="88" fill="white"/>
</clipPath>
</defs>
</svg>
