<svg width="53" height="53" viewBox="0 0 53 53" fill="none" xmlns="http://www.w3.org/2000/svg">
<g clip-path="url(#clip0_334_1556)">
<path d="M12.6562 3.5637V2.60084C12.6562 1.83251 12.0333 1.2113 11.2666 1.2113H10.3021C11.6018 1.2113 12.6562 2.26571 12.6562 3.56533V3.5637Z" fill="#989898"/>
<path d="M10.3022 1.2113H9.33765C8.56932 1.2113 7.94812 1.83414 7.94812 2.60084V3.56533C7.94812 2.26571 9.00253 1.2113 10.3022 1.2113Z" fill="#989898"/>
<path d="M7.94812 3.56543V4.52993C7.94812 5.29826 8.57096 5.91946 9.33765 5.91946H10.3022C9.00253 5.91946 7.94812 4.86505 7.94812 3.56543Z" fill="#989898"/>
<path d="M10.3021 5.91941H11.2666C12.035 5.91941 12.6562 5.29657 12.6562 4.52988V3.56702C12.6562 4.86664 11.6018 5.92105 10.3021 5.92105V5.91941Z" fill="#989898"/>
<path d="M10.3022 1.2113C9.00253 1.2113 7.94812 2.26571 7.94812 3.56533C7.94812 4.86495 9.00253 5.91936 10.3022 5.91936C11.6018 5.91936 12.6562 4.86495 12.6562 3.56533C12.6562 2.26408 11.6018 1.2113 10.3022 1.2113Z" fill="#989898"/>
<path d="M18.1489 1.21135H17.1844C16.4161 1.21135 15.7949 1.83419 15.7949 2.60088V3.56375C15.7949 2.26413 16.8493 1.20972 18.1489 1.20972V1.21135Z" fill="#989898"/>
<path d="M18.1489 5.91941H19.1134C19.8817 5.91941 20.5029 5.29657 20.5029 4.52988V3.56702C20.5029 4.86664 19.4485 5.92105 18.1489 5.92105V5.91941Z" fill="#989898"/>
<path d="M20.5029 3.56541V2.60254C20.5029 1.83422 19.8801 1.21301 19.1134 1.21301H18.1489C19.4485 1.21301 20.5029 2.26742 20.5029 3.56704V3.56541Z" fill="#989898"/>
<path d="M15.7949 3.56536V4.52822C15.7949 5.29655 16.4177 5.91775 17.1844 5.91775H18.1489C16.8493 5.91775 15.7949 4.86334 15.7949 3.56372V3.56536Z" fill="#989898"/>
<path d="M18.1489 1.2113C16.8493 1.2113 15.7949 2.26571 15.7949 3.56533C15.7949 4.86495 16.8493 5.91936 18.1489 5.91936C19.4485 5.91936 20.5029 4.86495 20.5029 3.56533C20.5029 2.26571 19.4485 1.2113 18.1489 1.2113Z" fill="#989898"/>
<path d="M33.8424 5.91941H34.8069C35.5753 5.91941 36.1965 5.29657 36.1965 4.52988V3.56702C36.1965 4.86664 35.1421 5.92105 33.8424 5.92105V5.91941Z" fill="#989898"/>
<path d="M36.1965 3.56541V2.60254C36.1965 1.83422 35.5736 1.21301 34.8069 1.21301H33.8424C35.1421 1.21301 36.1965 2.26742 36.1965 3.56704V3.56541Z" fill="#989898"/>
<path d="M31.4884 3.56536V4.52822C31.4884 5.29655 32.1113 5.91775 32.878 5.91775H33.8424C32.5428 5.91775 31.4884 4.86334 31.4884 3.56372V3.56536Z" fill="#989898"/>
<path d="M33.8424 1.21135H32.878C32.1096 1.21135 31.4884 1.83419 31.4884 2.60088V3.56375C31.4884 2.26413 32.5428 1.20972 33.8424 1.20972V1.21135Z" fill="#989898"/>
<path d="M33.8424 1.2113C32.5428 1.2113 31.4884 2.26571 31.4884 3.56533C31.4884 4.86495 32.5428 5.91936 33.8424 5.91936C35.1421 5.91936 36.1965 4.86495 36.1965 3.56533C36.1965 2.26571 35.1421 1.2113 33.8424 1.2113Z" fill="#989898"/>
<path d="M41.6892 5.91941H42.6537C43.422 5.91941 44.0432 5.29657 44.0432 4.52988V3.56702C44.0432 4.86664 42.9888 5.92105 41.6892 5.92105V5.91941Z" fill="#989898"/>
<path d="M44.0432 3.56541V2.60254C44.0432 1.83422 43.4204 1.21301 42.6537 1.21301H41.6892C42.9888 1.21301 44.0432 2.26742 44.0432 3.56704V3.56541Z" fill="#989898"/>
<path d="M41.6892 1.21135H40.7247C39.9564 1.21135 39.3352 1.83419 39.3352 2.60088V3.56375C39.3352 2.26413 40.3896 1.20972 41.6892 1.20972V1.21135Z" fill="#989898"/>
<path d="M39.3352 3.56536V4.52822C39.3352 5.29655 39.958 5.91775 40.7247 5.91775H41.6892C40.3896 5.91775 39.3352 4.86334 39.3352 3.56372V3.56536Z" fill="#989898"/>
<path d="M41.6892 1.2113C40.3896 1.2113 39.3352 2.26571 39.3352 3.56533C39.3352 4.86495 40.3896 5.91936 41.6892 5.91936C42.9888 5.91936 44.0432 4.86495 44.0432 3.56533C44.0432 2.26571 42.9888 1.2113 41.6892 1.2113Z" fill="#989898"/>
<path d="M44.0432 19.2589V18.296C44.0432 17.5277 43.4204 16.9065 42.6537 16.9065H41.6892C42.9888 16.9065 44.0432 17.9609 44.0432 19.2605V19.2589Z" fill="#989898"/>
<path d="M41.6892 21.6129H42.6537C43.422 21.6129 44.0432 20.9901 44.0432 20.2234V19.2605C44.0432 20.5601 42.9888 21.6145 41.6892 21.6145V21.6129Z" fill="#989898"/>
<path d="M41.6892 16.9048H40.7247C39.9564 16.9048 39.3352 17.5277 39.3352 18.2944V19.2572C39.3352 17.9576 40.3896 16.9032 41.6892 16.9032V16.9048Z" fill="#989898"/>
<path d="M39.3352 19.259V20.2218C39.3352 20.9902 39.958 21.6114 40.7247 21.6114H41.6892C40.3896 21.6114 39.3352 20.5569 39.3352 19.2573V19.259Z" fill="#989898"/>
<path d="M41.6892 16.9049C40.3896 16.9049 39.3352 17.9593 39.3352 19.2589C39.3352 20.5586 40.3896 21.613 41.6892 21.613C42.9888 21.613 44.0432 20.5586 44.0432 19.2589C44.0432 17.9593 42.9888 16.9049 41.6892 16.9049Z" fill="#989898"/>
<path d="M36.1965 11.4121V10.4492C36.1965 9.68089 35.5736 9.05969 34.8069 9.05969H33.8424C35.1421 9.05969 36.1965 10.1141 36.1965 11.4137V11.4121Z" fill="#989898"/>
<path d="M31.4884 11.4122V12.375C31.4884 13.1433 32.1113 13.7646 32.878 13.7646H33.8424C32.5428 13.7646 31.4884 12.7101 31.4884 11.4105V11.4122Z" fill="#989898"/>
<path d="M33.8424 13.7662H34.8069C35.5753 13.7662 36.1965 13.1434 36.1965 12.3767V11.4138C36.1965 12.7134 35.1421 13.7678 33.8424 13.7678V13.7662Z" fill="#989898"/>
<path d="M33.8424 9.05815H32.878C32.1096 9.05815 31.4884 9.68099 31.4884 10.4477V11.4105C31.4884 10.1109 32.5428 9.05652 33.8424 9.05652V9.05815Z" fill="#989898"/>
<path d="M33.8424 9.05811C32.5428 9.05811 31.4884 10.1125 31.4884 11.4121C31.4884 12.7118 32.5428 13.7662 33.8424 13.7662C35.1421 13.7662 36.1965 12.7118 36.1965 11.4121C36.1965 10.1125 35.1421 9.05811 33.8424 9.05811Z" fill="#989898"/>
<path d="M49.536 9.05815H48.5715C47.8032 9.05815 47.182 9.68099 47.182 10.4477V11.4105C47.182 10.1109 48.2364 9.05652 49.536 9.05652V9.05815Z" fill="#989898"/>
<path d="M49.536 13.7662H50.5005C51.2688 13.7662 51.89 13.1434 51.89 12.3767V11.4138C51.89 12.7134 50.8356 13.7678 49.536 13.7678V13.7662Z" fill="#989898"/>
<path d="M51.89 11.4121V10.4492C51.89 9.68089 51.2672 9.05969 50.5005 9.05969H49.536C50.8356 9.05969 51.89 10.1141 51.89 11.4137V11.4121Z" fill="#989898"/>
<path d="M47.182 11.4122V12.375C47.182 13.1433 47.8048 13.7646 48.5715 13.7646H49.536C48.2364 13.7646 47.182 12.7101 47.182 11.4105V11.4122Z" fill="#989898"/>
<path d="M49.536 9.05811C48.2364 9.05811 47.182 10.1125 47.182 11.4121C47.182 12.7118 48.2364 13.7662 49.536 13.7662C50.8356 13.7662 51.89 12.7118 51.89 11.4121C51.89 10.1125 50.8356 9.05811 49.536 9.05811Z" fill="#989898"/>
<path d="M51.89 34.9525V33.9896C51.89 33.2213 51.2672 32.6001 50.5005 32.6001H49.536C50.8356 32.6001 51.89 33.6545 51.89 34.9541V34.9525Z" fill="#989898"/>
<path d="M49.536 32.5984H48.5715C47.8032 32.5984 47.182 33.2213 47.182 33.988V34.9508C47.182 33.6512 48.2364 32.5968 49.536 32.5968V32.5984Z" fill="#989898"/>
<path d="M47.182 34.9524V35.9153C47.182 36.6836 47.8048 37.3048 48.5715 37.3048H49.536C48.2364 37.3048 47.182 36.2504 47.182 34.9508V34.9524Z" fill="#989898"/>
<path d="M49.536 37.3065H50.5005C51.2688 37.3065 51.89 36.6837 51.89 35.917V34.9541C51.89 36.2537 50.8356 37.3081 49.536 37.3081V37.3065Z" fill="#989898"/>
<path d="M49.536 32.5984C48.2364 32.5984 47.182 33.6528 47.182 34.9524C47.182 36.252 48.2364 37.3064 49.536 37.3064C50.8356 37.3064 51.89 36.252 51.89 34.9524C51.89 33.6528 50.8356 32.5984 49.536 32.5984Z" fill="#989898"/>
<path d="M47.182 42.7992V43.7621C47.182 44.5304 47.8048 45.1516 48.5715 45.1516H49.536C48.2364 45.1516 47.182 44.0972 47.182 42.7976V42.7992Z" fill="#989898"/>
<path d="M49.536 45.1532H50.5005C51.2688 45.1532 51.89 44.5303 51.89 43.7636V42.8008C51.89 44.1004 50.8356 45.1548 49.536 45.1548V45.1532Z" fill="#989898"/>
<path d="M51.89 42.7992V41.8363C51.89 41.068 51.2672 40.4468 50.5005 40.4468H49.536C50.8356 40.4468 51.89 41.5012 51.89 42.8008V42.7992Z" fill="#989898"/>
<path d="M49.536 40.4451H48.5715C47.8032 40.4451 47.182 41.068 47.182 41.8346V42.7975C47.182 41.4979 48.2364 40.4435 49.536 40.4435V40.4451Z" fill="#989898"/>
<path d="M49.536 40.4452C48.2364 40.4452 47.182 41.4996 47.182 42.7992C47.182 44.0988 48.2364 45.1532 49.536 45.1532C50.8356 45.1532 51.89 44.0988 51.89 42.7992C51.89 41.4996 50.8356 40.4452 49.536 40.4452Z" fill="#989898"/>
<path d="M51.89 51.6089V50.646C51.89 51.9456 50.8356 53 49.536 53H50.5005C51.2688 53 51.89 52.3772 51.89 51.6105V51.6089Z" fill="#989898"/>
<path d="M47.182 50.6459V51.6088C47.182 52.3771 47.8048 52.9983 48.5715 52.9983H49.536C48.2364 52.9983 47.182 51.9439 47.182 50.6443V50.6459Z" fill="#989898"/>
<path d="M49.536 48.2919H48.5715C47.8032 48.2919 47.182 48.9148 47.182 49.6815V50.6443C47.182 49.3447 48.2364 48.2903 49.536 48.2903V48.2919Z" fill="#989898"/>
<path d="M51.89 50.646V49.6831C51.89 48.9148 51.2672 48.2936 50.5005 48.2936H49.536C50.8356 48.2936 51.89 49.348 51.89 50.6476V50.646Z" fill="#989898"/>
<path d="M51.89 50.646C51.89 49.3464 50.8356 48.292 49.536 48.292C48.2364 48.292 47.182 49.3464 47.182 50.646C47.182 51.9456 48.2364 53 49.536 53C50.8356 53 51.89 51.9456 51.89 50.646Z" fill="#989898"/>
<path d="M39.3352 50.6459V51.6088C39.3352 52.3771 39.958 52.9983 40.7247 52.9983H41.6892C40.3896 52.9983 39.3352 51.9439 39.3352 50.6443V50.6459Z" fill="#989898"/>
<path d="M44.0432 51.6089V50.646C44.0432 51.9456 42.9888 53 41.6892 53H42.6537C43.422 53 44.0432 52.3772 44.0432 51.6105V51.6089Z" fill="#989898"/>
<path d="M41.6892 48.2919H40.7247C39.9564 48.2919 39.3352 48.9148 39.3352 49.6815V50.6443C39.3352 49.3447 40.3896 48.2903 41.6892 48.2903V48.2919Z" fill="#989898"/>
<path d="M44.0432 50.646V49.6831C44.0432 48.9148 43.4204 48.2936 42.6537 48.2936H41.6892C42.9888 48.2936 44.0432 49.348 44.0432 50.6476V50.646Z" fill="#989898"/>
<path d="M44.0432 50.646C44.0432 49.3464 42.9888 48.292 41.6892 48.292C40.3896 48.292 39.3352 49.3464 39.3352 50.646C39.3352 51.9456 40.3896 53 41.6892 53C42.9888 53 44.0432 51.9456 44.0432 50.646Z" fill="#989898"/>
<path d="M41.6892 45.1532H42.6537C43.422 45.1532 44.0432 44.5303 44.0432 43.7636V42.8008C44.0432 44.1004 42.9888 45.1548 41.6892 45.1548V45.1532Z" fill="#989898"/>
<path d="M44.0432 42.7992V41.8363C44.0432 41.068 43.4204 40.4468 42.6537 40.4468H41.6892C42.9888 40.4468 44.0432 41.5012 44.0432 42.8008V42.7992Z" fill="#989898"/>
<path d="M41.6892 40.4451H40.7247C39.9564 40.4451 39.3352 41.068 39.3352 41.8346V42.7975C39.3352 41.4979 40.3896 40.4435 41.6892 40.4435V40.4451Z" fill="#989898"/>
<path d="M39.3352 42.7992V43.7621C39.3352 44.5304 39.958 45.1516 40.7247 45.1516H41.6892C40.3896 45.1516 39.3352 44.0972 39.3352 42.7976V42.7992Z" fill="#989898"/>
<path d="M41.6892 40.4452C40.3896 40.4452 39.3352 41.4996 39.3352 42.7992C39.3352 44.0988 40.3896 45.1532 41.6892 45.1532C42.9888 45.1532 44.0432 44.0988 44.0432 42.7992C44.0432 41.4996 42.9888 40.4452 41.6892 40.4452Z" fill="#989898"/>
<path d="M33.8424 21.6129H34.8069C35.5753 21.6129 36.1965 20.9901 36.1965 20.2234V19.2605C36.1965 20.5601 35.1421 21.6145 33.8424 21.6145V21.6129Z" fill="#989898"/>
<path d="M33.8424 16.9048H32.878C32.1096 16.9048 31.4884 17.5277 31.4884 18.2944V19.2572C31.4884 17.9576 32.5428 16.9032 33.8424 16.9032V16.9048Z" fill="#989898"/>
<path d="M31.4884 19.259V20.2218C31.4884 20.9902 32.1113 21.6114 32.878 21.6114H33.8424C32.5428 21.6114 31.4884 20.5569 31.4884 19.2573V19.259Z" fill="#989898"/>
<path d="M36.1965 19.2589V18.296C36.1965 17.5277 35.5736 16.9065 34.8069 16.9065H33.8424C35.1421 16.9065 36.1965 17.9609 36.1965 19.2605V19.2589Z" fill="#989898"/>
<path d="M33.8424 16.9049C32.5428 16.9049 31.4884 17.9593 31.4884 19.2589C31.4884 20.5586 32.5428 21.613 33.8424 21.613C35.1421 21.613 36.1965 20.5586 36.1965 19.2589C36.1965 17.9593 35.1421 16.9049 33.8424 16.9049Z" fill="#989898"/>
<path d="M25.9957 21.6129H26.9602C27.7285 21.6129 28.3497 20.9901 28.3497 20.2234V19.2605C28.3497 20.5601 27.2953 21.6145 25.9957 21.6145V21.6129Z" fill="#989898"/>
<path d="M25.9957 16.9048H25.0312C24.2629 16.9048 23.6417 17.5277 23.6417 18.2944V19.2572C23.6417 17.9576 24.6961 16.9032 25.9957 16.9032V16.9048Z" fill="#989898"/>
<path d="M23.6417 19.259V20.2218C23.6417 20.9902 24.2645 21.6114 25.0312 21.6114H25.9957C24.6961 21.6114 23.6417 20.5569 23.6417 19.2573V19.259Z" fill="#989898"/>
<path d="M28.3497 19.2589V18.296C28.3497 17.5277 27.7269 16.9065 26.9602 16.9065H25.9957C27.2953 16.9065 28.3497 17.9609 28.3497 19.2605V19.2589Z" fill="#989898"/>
<path d="M25.9957 16.9049C24.6961 16.9049 23.6417 17.9593 23.6417 19.2589C23.6417 20.5586 24.6961 21.613 25.9957 21.613C27.2953 21.613 28.3497 20.5586 28.3497 19.2589C28.3497 17.9593 27.2953 16.9049 25.9957 16.9049Z" fill="#989898"/>
<path d="M25.9957 37.3064H26.9602C27.7285 37.3064 28.3497 36.6836 28.3497 35.9169V34.9524C28.3497 36.252 27.2953 37.3064 25.9957 37.3064Z" fill="#989898"/>
<path d="M25.9957 32.5984H25.0312C24.2629 32.5984 23.6417 33.2213 23.6417 33.988V34.9508C23.6417 33.6512 24.6961 32.5968 25.9957 32.5968V32.5984Z" fill="#989898"/>
<path d="M26.9585 32.5984H25.994C27.2937 32.5984 28.3481 33.6528 28.3481 34.9524V33.9879C28.3481 33.2196 27.7252 32.5984 26.9585 32.5984Z" fill="#989898"/>
<path d="M23.6417 34.9524V35.9153C23.6417 36.6836 24.2645 37.3048 25.0312 37.3048H25.9957C24.6961 37.3048 23.6417 36.2504 23.6417 34.9508V34.9524Z" fill="#989898"/>
<path d="M25.9957 32.5984C24.6961 32.5984 23.6417 33.6528 23.6417 34.9524C23.6417 36.2537 24.6961 37.3064 25.9957 37.3064C27.2953 37.3064 28.3497 36.252 28.3497 34.9524C28.3497 33.6528 27.2953 32.5984 25.9957 32.5984Z" fill="#989898"/>
<path d="M25.9957 40.4451H25.0312C24.2629 40.4451 23.6417 41.068 23.6417 41.8346V42.7975C23.6417 41.4979 24.6961 40.4435 25.9957 40.4435V40.4451Z" fill="#989898"/>
<path d="M28.3497 42.7992V41.8363C28.3497 41.068 27.7269 40.4468 26.9602 40.4468H25.9957C27.2953 40.4468 28.3497 41.5012 28.3497 42.8008V42.7992Z" fill="#989898"/>
<path d="M25.9957 45.1532H26.9602C27.7285 45.1532 28.3497 44.5303 28.3497 43.7636V42.8008C28.3497 44.1004 27.2953 45.1548 25.9957 45.1548V45.1532Z" fill="#989898"/>
<path d="M23.6417 42.7992V43.7621C23.6417 44.5304 24.2645 45.1516 25.0312 45.1516H25.9957C24.6961 45.1516 23.6417 44.0972 23.6417 42.7976V42.7992Z" fill="#989898"/>
<path d="M25.9957 40.4452C24.6961 40.4452 23.6417 41.4996 23.6417 42.7992C23.6417 44.0988 24.6961 45.1532 25.9957 45.1532C27.2953 45.1532 28.3497 44.0988 28.3497 42.7992C28.3497 41.4996 27.2953 40.4452 25.9957 40.4452Z" fill="#989898"/>
<path d="M18.1489 37.3064H19.1134C19.8817 37.3064 20.5029 36.6836 20.5029 35.9169V34.9524C20.5029 36.252 19.4485 37.3064 18.1489 37.3064Z" fill="#989898"/>
<path d="M19.1118 32.5984H18.1473C19.4469 32.5984 20.5013 33.6528 20.5013 34.9524V33.9879C20.5013 33.2196 19.8785 32.5984 19.1118 32.5984Z" fill="#989898"/>
<path d="M15.7949 34.9524V35.9153C15.7949 36.6836 16.4177 37.3048 17.1844 37.3048H18.1489C16.8493 37.3048 15.7949 36.2504 15.7949 34.9508V34.9524Z" fill="#989898"/>
<path d="M18.1489 32.5984H17.1844C16.4161 32.5984 15.7949 33.2213 15.7949 33.988V34.9508C15.7949 33.6512 16.8493 32.5968 18.1489 32.5968V32.5984Z" fill="#989898"/>
<path d="M18.1489 32.5984C16.8493 32.5984 15.7949 33.6528 15.7949 34.9524C15.7949 36.2537 16.8493 37.3064 18.1489 37.3064C19.4485 37.3064 20.5029 36.252 20.5029 34.9524C20.5029 33.6528 19.4485 32.5984 18.1489 32.5984Z" fill="#989898"/>
<path d="M18.1489 45.1532H19.1134C19.8817 45.1532 20.5029 44.5303 20.5029 43.7636V42.8008C20.5029 44.1004 19.4485 45.1548 18.1489 45.1548V45.1532Z" fill="#989898"/>
<path d="M15.7949 42.7992V43.7621C15.7949 44.5304 16.4177 45.1516 17.1844 45.1516H18.1489C16.8493 45.1516 15.7949 44.0972 15.7949 42.7976V42.7992Z" fill="#989898"/>
<path d="M20.5029 42.7992V41.8363C20.5029 41.068 19.8801 40.4468 19.1134 40.4468H18.1489C19.4485 40.4468 20.5029 41.5012 20.5029 42.8008V42.7992Z" fill="#989898"/>
<path d="M18.1489 40.4451H17.1844C16.4161 40.4451 15.7949 41.068 15.7949 41.8346V42.7975C15.7949 41.4979 16.8493 40.4435 18.1489 40.4435V40.4451Z" fill="#989898"/>
<path d="M18.1489 40.4452C16.8493 40.4452 15.7949 41.4996 15.7949 42.7992C15.7949 44.0988 16.8493 45.1532 18.1489 45.1532C19.4485 45.1532 20.5029 44.0988 20.5029 42.7992C20.5029 41.4996 19.4485 40.4452 18.1489 40.4452Z" fill="#989898"/>
<path d="M10.3022 40.4451H9.33765C8.56932 40.4451 7.94812 41.068 7.94812 41.8346V42.7975C7.94812 41.4979 9.00253 40.4435 10.3022 40.4435V40.4451Z" fill="#989898"/>
<path d="M10.3021 45.1532H11.2666C12.035 45.1532 12.6562 44.5304 12.6562 43.7637V42.7992C12.6562 44.0988 11.6018 45.1532 10.3021 45.1532Z" fill="#989898"/>
<path d="M7.94812 42.7992V43.7621C7.94812 44.5304 8.57096 45.1516 9.33765 45.1516H10.3022C9.00253 45.1516 7.94812 44.0972 7.94812 42.7976V42.7992Z" fill="#989898"/>
<path d="M11.265 40.4452H10.3005C11.6001 40.4452 12.6545 41.4996 12.6545 42.7992V41.8347C12.6545 41.0664 12.0317 40.4452 11.265 40.4452Z" fill="#989898"/>
<path d="M10.3022 40.4452C9.00253 40.4452 7.94812 41.4996 7.94812 42.7992C7.94812 44.1005 9.00253 45.1532 10.3022 45.1532C11.6018 45.1532 12.6562 44.0988 12.6562 42.7992C12.6562 41.4996 11.6018 40.4452 10.3022 40.4452Z" fill="#989898"/>
<path d="M12.6562 51.6088V50.6443C12.6562 51.9439 11.6018 52.9983 10.3021 52.9983H11.2666C12.035 52.9983 12.6562 52.3755 12.6562 51.6088Z" fill="#989898"/>
<path d="M12.6562 50.646V49.6815C12.6562 48.9132 12.0333 48.292 11.2666 48.292H10.3021C11.6018 48.292 12.6562 49.3464 12.6562 50.646Z" fill="#989898"/>
<path d="M10.3022 48.2919H9.33765C8.56932 48.2919 7.94812 48.9148 7.94812 49.6815V50.6443C7.94812 49.3447 9.00253 48.2903 10.3022 48.2903V48.2919Z" fill="#989898"/>
<path d="M7.94812 50.6459V51.6088C7.94812 52.3771 8.57096 52.9983 9.33765 52.9983H10.3022C9.00253 52.9983 7.94812 51.9439 7.94812 50.6443V50.6459Z" fill="#989898"/>
<path d="M12.6562 50.646C12.6562 49.3464 11.6018 48.292 10.3022 48.292C9.00253 48.292 7.94812 49.3464 7.94812 50.646C7.94812 51.9473 9.00253 53 10.3022 53C11.6018 53 12.6562 51.9456 12.6562 50.646Z" fill="#989898"/>
<path d="M2.45538 45.1532H3.41988C4.18821 45.1532 4.80941 44.5303 4.80941 43.7636V42.8008C4.80941 44.1004 3.755 45.1548 2.45538 45.1548V45.1532Z" fill="#989898"/>
<path d="M4.80941 42.7992V41.8363C4.80941 41.068 4.18658 40.4468 3.41988 40.4468H2.45538C3.755 40.4468 4.80941 41.5012 4.80941 42.8008V42.7992Z" fill="#989898"/>
<path d="M2.45539 40.4451H1.49089C0.722559 40.4451 0.101357 41.068 0.101357 41.8346V42.7975C0.101357 41.4979 1.15577 40.4435 2.45539 40.4435V40.4451Z" fill="#989898"/>
<path d="M0.101357 42.7992V43.7621C0.101357 44.5304 0.724194 45.1516 1.49089 45.1516H2.45539C1.15577 45.1516 0.101357 44.0972 0.101357 42.7976V42.7992Z" fill="#989898"/>
<path d="M2.45539 40.4452C1.15577 40.4452 0.101357 41.4996 0.101357 42.7992C0.101357 44.0988 1.15577 45.1532 2.45539 45.1532C3.75501 45.1532 4.80942 44.0988 4.80942 42.7992C4.80942 41.4996 3.75501 40.4452 2.45539 40.4452Z" fill="#989898"/>
<path d="M2.45538 37.3064H3.41988C4.18821 37.3064 4.80941 36.6836 4.80941 35.9169V34.9524C4.80941 36.252 3.755 37.3064 2.45538 37.3064Z" fill="#989898"/>
<path d="M0.101357 34.9524V35.9153C0.101357 36.6836 0.724194 37.3048 1.49089 37.3048H2.45539C1.15577 37.3048 0.101357 36.2504 0.101357 34.9508V34.9524Z" fill="#989898"/>
<path d="M2.45539 32.5984H1.49089C0.722559 32.5984 0.101357 33.2213 0.101357 33.988V34.9508C0.101357 33.6512 1.15577 32.5968 2.45539 32.5968V32.5984Z" fill="#989898"/>
<path d="M3.41825 32.5984H2.45375C3.75337 32.5984 4.80778 33.6528 4.80778 34.9524V33.9879C4.80778 33.2196 4.18494 32.5984 3.41825 32.5984Z" fill="#989898"/>
<path d="M2.45539 32.5984C1.15577 32.5984 0.101357 33.6528 0.101357 34.9524C0.101357 36.2537 1.15577 37.3064 2.45539 37.3064C3.75501 37.3064 4.80942 36.252 4.80942 34.9524C4.80942 33.6528 3.75501 32.5984 2.45539 32.5984Z" fill="#989898"/>
<path d="M7.94812 27.1056V28.0685C7.94812 28.8368 8.57096 29.458 9.33765 29.458H10.3022C9.00253 29.458 7.94812 28.4036 7.94812 27.104V27.1056Z" fill="#989898"/>
<path d="M10.3021 29.4597H11.2666C12.035 29.4597 12.6562 28.8369 12.6562 28.0702V27.1073C12.6562 28.4069 11.6018 29.4613 10.3021 29.4613V29.4597Z" fill="#989898"/>
<path d="M10.3022 24.7516H9.33765C8.56932 24.7516 7.94812 25.3745 7.94812 26.1412V27.104C7.94812 25.8044 9.00253 24.75 10.3022 24.75V24.7516Z" fill="#989898"/>
<path d="M12.6562 27.1057V26.1428C12.6562 25.3745 12.0333 24.7533 11.2666 24.7533H10.3021C11.6018 24.7533 12.6562 25.8077 12.6562 27.1073V27.1057Z" fill="#989898"/>
<path d="M10.3022 24.7516C9.00253 24.7516 7.94812 25.806 7.94812 27.1056C7.94812 28.4052 9.00253 29.4596 10.3022 29.4596C11.6018 29.4596 12.6562 28.4052 12.6562 27.1056C12.6562 25.806 11.6018 24.7516 10.3022 24.7516Z" fill="#989898"/>
<path d="M2.45538 21.6129H3.41988C4.18821 21.6129 4.80941 20.9901 4.80941 20.2234V19.2605C4.80941 20.5601 3.755 21.6145 2.45538 21.6145V21.6129Z" fill="#989898"/>
<path d="M2.45539 16.9048H1.49089C0.722559 16.9048 0.101357 17.5277 0.101357 18.2944V19.2572C0.101357 17.9576 1.15577 16.9032 2.45539 16.9032V16.9048Z" fill="#989898"/>
<path d="M4.80941 19.2589V18.296C4.80941 17.5277 4.18658 16.9065 3.41988 16.9065H2.45538C3.755 16.9065 4.80941 17.9609 4.80941 19.2605V19.2589Z" fill="#989898"/>
<path d="M0.101357 19.259V20.2218C0.101357 20.9902 0.724194 21.6114 1.49089 21.6114H2.45539C1.15577 21.6114 0.101357 20.5569 0.101357 19.2573V19.259Z" fill="#989898"/>
<path d="M2.45539 16.9049C1.15577 16.9049 0.101357 17.9593 0.101357 19.2589C0.101357 20.5586 1.15577 21.613 2.45539 21.613C3.75501 21.613 4.80942 20.5586 4.80942 19.2589C4.80942 17.9593 3.75501 16.9049 2.45539 16.9049Z" fill="#989898"/>
<path d="M4.80941 11.4121V10.4492C4.80941 9.68089 4.18658 9.05969 3.41988 9.05969H2.45538C3.755 9.05969 4.80941 10.1141 4.80941 11.4137V11.4121Z" fill="#989898"/>
<path d="M0.101357 11.4122V12.375C0.101357 13.1433 0.724194 13.7646 1.49089 13.7646H2.45539C1.15577 13.7646 0.101357 12.7101 0.101357 11.4105V11.4122Z" fill="#989898"/>
<path d="M2.45539 9.05815H1.49089C0.722559 9.05815 0.101357 9.68099 0.101357 10.4477V11.4105C0.101357 10.1109 1.15577 9.05652 2.45539 9.05652V9.05815Z" fill="#989898"/>
<path d="M2.45538 13.7662H3.41988C4.18821 13.7662 4.80941 13.1434 4.80941 12.3767V11.4138C4.80941 12.7134 3.755 13.7678 2.45538 13.7678V13.7662Z" fill="#989898"/>
<path d="M2.45539 9.05811C1.15577 9.05811 0.101357 10.1125 0.101357 11.4121C0.101357 12.7118 1.15577 13.7662 2.45539 13.7662C3.75501 13.7662 4.80942 12.7118 4.80942 11.4121C4.80942 10.1125 3.75501 9.05811 2.45539 9.05811Z" fill="#989898"/>
<path d="M18.1489 16.9049H17.1844C16.4161 16.9049 15.7949 17.5277 15.7949 18.2944V19.2589C15.7949 17.9593 16.8493 16.9049 18.1489 16.9049Z" fill="#989898"/>
<path d="M18.1489 21.6129H19.1134C19.8817 21.6129 20.5029 20.9901 20.5029 20.2234V19.2605C20.5029 20.5601 19.4485 21.6145 18.1489 21.6145V21.6129Z" fill="#989898"/>
<path d="M20.5029 19.2573V18.2944C20.5029 17.5261 19.8801 16.9049 19.1134 16.9049H18.1489C19.4485 16.9049 20.5029 17.9593 20.5029 19.2589V19.2573Z" fill="#989898"/>
<path d="M15.7949 19.2589V20.2234C15.7949 20.9917 16.4177 21.6129 17.1844 21.6129H18.1489C16.8493 21.6129 15.7949 20.5585 15.7949 19.2589Z" fill="#989898"/>
<path d="M18.1489 16.9049C16.8493 16.9049 15.7949 17.9593 15.7949 19.2589C15.7949 20.5586 16.8493 21.613 18.1489 21.613C19.4485 21.613 20.5029 20.5586 20.5029 19.2589C20.5029 17.9577 19.4485 16.9049 18.1489 16.9049Z" fill="#989898"/>
<path d="M20.5029 11.4105V10.4476C20.5029 9.67931 19.8801 9.05811 19.1134 9.05811H18.1489C19.4485 9.05811 20.5029 10.1125 20.5029 11.4121V11.4105Z" fill="#989898"/>
<path d="M18.1489 13.7662H19.1134C19.8817 13.7662 20.5029 13.1434 20.5029 12.3767V11.4138C20.5029 12.7134 19.4485 13.7678 18.1489 13.7678V13.7662Z" fill="#989898"/>
<path d="M18.1489 9.05811H17.1844C16.4161 9.05811 15.7949 9.68094 15.7949 10.4476V11.4121C15.7949 10.1125 16.8493 9.05811 18.1489 9.05811Z" fill="#989898"/>
<path d="M15.7949 11.4121V12.3766C15.7949 13.1449 16.4177 13.7661 17.1844 13.7661H18.1489C16.8493 13.7661 15.7949 12.7117 15.7949 11.4121Z" fill="#989898"/>
<path d="M18.1489 9.05811C16.8493 9.05811 15.7949 10.1125 15.7949 11.4121C15.7949 12.7118 16.8493 13.7662 18.1489 13.7662C19.4485 13.7662 20.5029 12.7118 20.5029 11.4121C20.5029 10.1109 19.4485 9.05811 18.1489 9.05811Z" fill="#989898"/>
<path d="M10.3022 9.05815H9.33765C8.56932 9.05815 7.94812 9.68099 7.94812 10.4477V11.4105C7.94812 10.1109 9.00253 9.05652 10.3022 9.05652V9.05815Z" fill="#989898"/>
<path d="M11.265 9.05811H10.3005C11.6001 9.05811 12.6545 10.1125 12.6545 11.4121V10.4476C12.6545 9.67931 12.0317 9.05811 11.265 9.05811Z" fill="#989898"/>
<path d="M7.94812 11.4122V12.375C7.94812 13.1433 8.57096 13.7646 9.33765 13.7646H10.3022C9.00253 13.7646 7.94812 12.7101 7.94812 11.4105V11.4122Z" fill="#989898"/>
<path d="M10.3021 13.7661H11.2666C12.035 13.7661 12.6562 13.1433 12.6562 12.3766V11.4121C12.6562 12.7117 11.6018 13.7661 10.3021 13.7661Z" fill="#989898"/>
<path d="M10.3022 9.05811C9.00253 9.05811 7.94812 10.1125 7.94812 11.4121C7.94812 12.7134 9.00253 13.7662 10.3022 13.7662C11.6018 13.7662 12.6562 12.7118 12.6562 11.4121C12.6562 10.1125 11.6018 9.05811 10.3022 9.05811Z" fill="#989898"/>
<path d="M28.3497 50.646V49.6831C28.3497 48.9148 27.7269 48.2936 26.9602 48.2936H25.9957C27.2953 48.2936 28.3497 49.348 28.3497 50.6476V50.646Z" fill="#989898"/>
<path d="M28.3497 51.6089V50.646C28.3497 51.9456 27.2953 53 25.9957 53H26.9602C27.7285 53 28.3497 52.3772 28.3497 51.6105V51.6089Z" fill="#989898"/>
<path d="M25.9957 48.2919H25.0312C24.2629 48.2919 23.6417 48.9148 23.6417 49.6815V50.6443C23.6417 49.3447 24.6961 48.2903 25.9957 48.2903V48.2919Z" fill="#989898"/>
<path d="M23.6417 50.6459V51.6088C23.6417 52.3771 24.2645 52.9983 25.0312 52.9983H25.9957C24.6961 52.9983 23.6417 51.9439 23.6417 50.6443V50.6459Z" fill="#989898"/>
<path d="M28.3497 50.646C28.3497 49.3464 27.2953 48.292 25.9957 48.292C24.6961 48.292 23.6417 49.3464 23.6417 50.646C23.6417 51.9456 24.6961 53 25.9957 53C27.2953 53 28.3497 51.9456 28.3497 50.646Z" fill="#989898"/>
<path d="M33.8424 29.4597H34.8069C35.5753 29.4597 36.1965 28.8369 36.1965 28.0702V27.1073C36.1965 28.4069 35.1421 29.4613 33.8424 29.4613V29.4597Z" fill="#989898"/>
<path d="M31.4884 27.1056V28.0685C31.4884 28.8368 32.1113 29.458 32.878 29.458H33.8424C32.5428 29.458 31.4884 28.4036 31.4884 27.104V27.1056Z" fill="#989898"/>
<path d="M33.8424 24.7516H32.878C32.1096 24.7516 31.4884 25.3745 31.4884 26.1412V27.104C31.4884 25.8044 32.5428 24.75 33.8424 24.75V24.7516Z" fill="#989898"/>
<path d="M36.1965 27.1057V26.1428C36.1965 25.3745 35.5736 24.7533 34.8069 24.7533H33.8424C35.1421 24.7533 36.1965 25.8077 36.1965 27.1073V27.1057Z" fill="#989898"/>
<path d="M33.8424 24.7516C32.5428 24.7516 31.4884 25.806 31.4884 27.1056C31.4884 28.4052 32.5428 29.4596 33.8424 29.4596C35.1421 29.4596 36.1965 28.4052 36.1965 27.1056C36.1965 25.806 35.1421 24.7516 33.8424 24.7516Z" fill="#989898"/>
</g>
<defs>
<clipPath id="clip0_334_1556">
<rect width="53" height="53" fill="white"/>
</clipPath>
</defs>
</svg>
