<svg width="53" height="53" viewBox="0 0 53 53" fill="none" xmlns="http://www.w3.org/2000/svg">
<g clip-path="url(#clip0_334_1520)">
<path d="M10.3022 5.91936C11.6022 5.91936 12.6562 4.86543 12.6562 3.56533C12.6562 2.26524 11.6022 1.2113 10.3022 1.2113C9.00206 1.2113 7.94812 2.26524 7.94812 3.56533C7.94812 4.86543 9.00206 5.91936 10.3022 5.91936Z" fill="#989898"/>
<path d="M18.1489 5.91936C19.449 5.91936 20.5029 4.86543 20.5029 3.56533C20.5029 2.26524 19.449 1.2113 18.1489 1.2113C16.8488 1.2113 15.7949 2.26524 15.7949 3.56533C15.7949 4.86543 16.8488 5.91936 18.1489 5.91936Z" fill="#989898"/>
<path d="M33.8424 5.91936C35.1425 5.91936 36.1965 4.86543 36.1965 3.56533C36.1965 2.26524 35.1425 1.2113 33.8424 1.2113C32.5424 1.2113 31.4884 2.26524 31.4884 3.56533C31.4884 4.86543 32.5424 5.91936 33.8424 5.91936Z" fill="#989898"/>
<path d="M41.6892 5.91936C42.9893 5.91936 44.0432 4.86543 44.0432 3.56533C44.0432 2.26524 42.9893 1.2113 41.6892 1.2113C40.3891 1.2113 39.3352 2.26524 39.3352 3.56533C39.3352 4.86543 40.3891 5.91936 41.6892 5.91936Z" fill="#989898"/>
<path d="M2.45538 13.7662C3.75548 13.7662 4.80941 12.7122 4.80941 11.4121C4.80941 10.112 3.75548 9.05811 2.45538 9.05811C1.15529 9.05811 0.101354 10.112 0.101354 11.4121C0.101354 12.7122 1.15529 13.7662 2.45538 13.7662Z" fill="#989898"/>
<path d="M10.3022 13.7662C11.6022 13.7662 12.6562 12.7122 12.6562 11.4121C12.6562 10.112 11.6022 9.05811 10.3022 9.05811C9.00206 9.05811 7.94812 10.112 7.94812 11.4121C7.94812 12.7122 9.00206 13.7662 10.3022 13.7662Z" fill="#989898"/>
<path d="M18.1489 13.7662C19.449 13.7662 20.5029 12.7122 20.5029 11.4121C20.5029 10.112 19.449 9.05811 18.1489 9.05811C16.8488 9.05811 15.7949 10.112 15.7949 11.4121C15.7949 12.7122 16.8488 13.7662 18.1489 13.7662Z" fill="#989898"/>
<path d="M33.8424 13.7662C35.1425 13.7662 36.1965 12.7122 36.1965 11.4121C36.1965 10.112 35.1425 9.05811 33.8424 9.05811C32.5424 9.05811 31.4884 10.112 31.4884 11.4121C31.4884 12.7122 32.5424 13.7662 33.8424 13.7662Z" fill="#989898"/>
<path d="M49.536 13.7662C50.8361 13.7662 51.89 12.7122 51.89 11.4121C51.89 10.112 50.8361 9.05811 49.536 9.05811C48.2359 9.05811 47.1819 10.112 47.1819 11.4121C47.1819 12.7122 48.2359 13.7662 49.536 13.7662Z" fill="#989898"/>
<path d="M2.45538 21.613C3.75548 21.613 4.80941 20.559 4.80941 19.2589C4.80941 17.9588 3.75548 16.9049 2.45538 16.9049C1.15529 16.9049 0.101354 17.9588 0.101354 19.2589C0.101354 20.559 1.15529 21.613 2.45538 21.613Z" fill="#989898"/>
<path d="M18.1489 21.613C19.449 21.613 20.5029 20.559 20.5029 19.2589C20.5029 17.9588 19.449 16.9049 18.1489 16.9049C16.8488 16.9049 15.7949 17.9588 15.7949 19.2589C15.7949 20.559 16.8488 21.613 18.1489 21.613Z" fill="#989898"/>
<path d="M25.9957 21.613C27.2958 21.613 28.3497 20.559 28.3497 19.2589C28.3497 17.9588 27.2958 16.9049 25.9957 16.9049C24.6956 16.9049 23.6417 17.9588 23.6417 19.2589C23.6417 20.559 24.6956 21.613 25.9957 21.613Z" fill="#989898"/>
<path d="M33.8424 21.613C35.1425 21.613 36.1965 20.559 36.1965 19.2589C36.1965 17.9588 35.1425 16.9049 33.8424 16.9049C32.5424 16.9049 31.4884 17.9588 31.4884 19.2589C31.4884 20.559 32.5424 21.613 33.8424 21.613Z" fill="#989898"/>
<path d="M41.6892 21.613C42.9893 21.613 44.0432 20.559 44.0432 19.2589C44.0432 17.9588 42.9893 16.9049 41.6892 16.9049C40.3891 16.9049 39.3352 17.9588 39.3352 19.2589C39.3352 20.559 40.3891 21.613 41.6892 21.613Z" fill="#989898"/>
<path d="M10.3022 29.4596C11.6022 29.4596 12.6562 28.4057 12.6562 27.1056C12.6562 25.8055 11.6022 24.7516 10.3022 24.7516C9.00206 24.7516 7.94812 25.8055 7.94812 27.1056C7.94812 28.4057 9.00206 29.4596 10.3022 29.4596Z" fill="#989898"/>
<path d="M33.8424 29.4596C35.1425 29.4596 36.1965 28.4057 36.1965 27.1056C36.1965 25.8055 35.1425 24.7516 33.8424 24.7516C32.5424 24.7516 31.4884 25.8055 31.4884 27.1056C31.4884 28.4057 32.5424 29.4596 33.8424 29.4596Z" fill="#989898"/>
<path d="M2.45538 37.3064C3.75548 37.3064 4.80941 36.2525 4.80941 34.9524C4.80941 33.6523 3.75548 32.5984 2.45538 32.5984C1.15529 32.5984 0.101354 33.6523 0.101354 34.9524C0.101354 36.2525 1.15529 37.3064 2.45538 37.3064Z" fill="#989898"/>
<path d="M18.1489 37.3064C19.449 37.3064 20.5029 36.2525 20.5029 34.9524C20.5029 33.6523 19.449 32.5984 18.1489 32.5984C16.8488 32.5984 15.7949 33.6523 15.7949 34.9524C15.7949 36.2525 16.8488 37.3064 18.1489 37.3064Z" fill="#989898"/>
<path d="M25.9957 37.3064C27.2958 37.3064 28.3497 36.2525 28.3497 34.9524C28.3497 33.6523 27.2958 32.5984 25.9957 32.5984C24.6956 32.5984 23.6417 33.6523 23.6417 34.9524C23.6417 36.2525 24.6956 37.3064 25.9957 37.3064Z" fill="#989898"/>
<path d="M49.536 37.3064C50.8361 37.3064 51.89 36.2525 51.89 34.9524C51.89 33.6523 50.8361 32.5984 49.536 32.5984C48.2359 32.5984 47.1819 33.6523 47.1819 34.9524C47.1819 36.2525 48.2359 37.3064 49.536 37.3064Z" fill="#989898"/>
<path d="M2.45538 45.1532C3.75548 45.1532 4.80941 44.0993 4.80941 42.7992C4.80941 41.4991 3.75548 40.4452 2.45538 40.4452C1.15529 40.4452 0.101354 41.4991 0.101354 42.7992C0.101354 44.0993 1.15529 45.1532 2.45538 45.1532Z" fill="#989898"/>
<path d="M10.3022 45.1532C11.6022 45.1532 12.6562 44.0993 12.6562 42.7992C12.6562 41.4991 11.6022 40.4452 10.3022 40.4452C9.00206 40.4452 7.94812 41.4991 7.94812 42.7992C7.94812 44.0993 9.00206 45.1532 10.3022 45.1532Z" fill="#989898"/>
<path d="M18.1489 45.1532C19.449 45.1532 20.5029 44.0993 20.5029 42.7992C20.5029 41.4991 19.449 40.4452 18.1489 40.4452C16.8488 40.4452 15.7949 41.4991 15.7949 42.7992C15.7949 44.0993 16.8488 45.1532 18.1489 45.1532Z" fill="#989898"/>
<path d="M25.9957 45.1532C27.2958 45.1532 28.3497 44.0993 28.3497 42.7992C28.3497 41.4991 27.2958 40.4452 25.9957 40.4452C24.6956 40.4452 23.6417 41.4991 23.6417 42.7992C23.6417 44.0993 24.6956 45.1532 25.9957 45.1532Z" fill="#989898"/>
<path d="M41.6892 45.1532C42.9893 45.1532 44.0432 44.0993 44.0432 42.7992C44.0432 41.4991 42.9893 40.4452 41.6892 40.4452C40.3891 40.4452 39.3352 41.4991 39.3352 42.7992C39.3352 44.0993 40.3891 45.1532 41.6892 45.1532Z" fill="#989898"/>
<path d="M49.536 45.1532C50.8361 45.1532 51.89 44.0993 51.89 42.7992C51.89 41.4991 50.8361 40.4452 49.536 40.4452C48.2359 40.4452 47.1819 41.4991 47.1819 42.7992C47.1819 44.0993 48.2359 45.1532 49.536 45.1532Z" fill="#989898"/>
<path d="M12.4776 51.5462C12.9751 50.345 12.4048 48.968 11.2036 48.4705C10.0025 47.973 8.62546 48.5433 8.12794 49.7445C7.63041 50.9456 8.2008 52.3226 9.40193 52.8202C10.6031 53.3177 11.9801 52.7473 12.4776 51.5462Z" fill="#989898"/>
<path d="M28.1708 51.5458C28.6683 50.3447 28.0979 48.9676 26.8968 48.4701C25.6956 47.9726 24.3186 48.543 23.8211 49.7441C23.3236 50.9452 23.8939 52.3223 25.0951 52.8198C26.2962 53.3173 27.6732 52.7469 28.1708 51.5458Z" fill="#989898"/>
<path d="M43.8639 51.5454C44.3614 50.3443 43.791 48.9673 42.5899 48.4697C41.3888 47.9722 40.0117 48.5426 39.5142 49.7437C39.0167 50.9449 39.5871 52.3219 40.7882 52.8194C41.9893 53.317 43.3664 52.7466 43.8639 51.5454Z" fill="#989898"/>
<path d="M51.7105 51.546C52.208 50.3449 51.6376 48.9679 50.4365 48.4704C49.2353 47.9728 47.8583 48.5432 47.3608 49.7444C46.8633 50.9455 47.4336 52.3225 48.6348 52.82C49.8359 53.3176 51.2129 52.7472 51.7105 51.546Z" fill="#989898"/>
</g>
<defs>
<clipPath id="clip0_334_1520">
<rect width="53" height="53" fill="white"/>
</clipPath>
</defs>
</svg>
