<svg width="52" height="52" viewBox="0 0 52 52" fill="none" xmlns="http://www.w3.org/2000/svg">
<g clip-path="url(#clip0_330_1374)">
<path d="M14.9346 0.17981H7.55724V7.55722H14.9346V0.17981Z" fill="#989898"/>
<path d="M22.3121 0.17981H14.9346V7.55722H22.3121V0.17981Z" fill="#989898"/>
<path d="M37.0669 0.17981H29.6895V7.55722H37.0669V0.17981Z" fill="#989898"/>
<path d="M44.4443 0.17981H37.0669V7.55722H44.4443V0.17981Z" fill="#989898"/>
<path d="M7.55724 7.55725H0.179825V14.9347H7.55724V7.55725Z" fill="#989898"/>
<path d="M14.9346 7.55725H7.55724V14.9347H14.9346V7.55725Z" fill="#989898"/>
<path d="M22.3121 7.55725H14.9346V14.9347H22.3121V7.55725Z" fill="#989898"/>
<path d="M37.0669 7.55725H29.6895V14.9347H37.0669V7.55725Z" fill="#989898"/>
<path d="M51.8217 7.55725H44.4443V14.9347H51.8217V7.55725Z" fill="#989898"/>
<path d="M52.0015 7.55725H51.8217V14.9347H52.0015V7.55725Z" fill="#989898"/>
<path d="M7.55724 14.9347H0.179825V22.3121H7.55724V14.9347Z" fill="#989898"/>
<path d="M22.3121 14.9347H14.9346V22.3121H22.3121V14.9347Z" fill="#989898"/>
<path d="M29.6895 14.9347H22.3121V22.3121H29.6895V14.9347Z" fill="#989898"/>
<path d="M37.0669 14.9347H29.6895V22.3121H37.0669V14.9347Z" fill="#989898"/>
<path d="M44.4443 14.9347H37.0669V22.3121H44.4443V14.9347Z" fill="#989898"/>
<path d="M14.9346 22.312H7.55724V29.6894H14.9346V22.312Z" fill="#989898"/>
<path d="M37.0669 22.312H29.6895V29.6894H37.0669V22.312Z" fill="#989898"/>
<path d="M7.55724 29.6895H0.179825V37.0669H7.55724V29.6895Z" fill="#989898"/>
<path d="M22.3121 29.6895H14.9346V37.0669H22.3121V29.6895Z" fill="#989898"/>
<path d="M29.6895 29.6895H22.3121V37.0669H29.6895V29.6895Z" fill="#989898"/>
<path d="M51.8217 29.6895H44.4443V37.0669H51.8217V29.6895Z" fill="#989898"/>
<path d="M52.0015 29.6895H51.8217V37.0669H52.0015V29.6895Z" fill="#989898"/>
<path d="M7.55724 37.0669H0.179825V44.4443H7.55724V37.0669Z" fill="#989898"/>
<path d="M14.9346 37.0669H7.55724V44.4443H14.9346V37.0669Z" fill="#989898"/>
<path d="M22.3121 37.0669H14.9346V44.4443H22.3121V37.0669Z" fill="#989898"/>
<path d="M29.6895 37.0669H22.3121V44.4443H29.6895V37.0669Z" fill="#989898"/>
<path d="M44.4443 37.0669H37.0669V44.4443H44.4443V37.0669Z" fill="#989898"/>
<path d="M51.8217 37.0669H44.4443V44.4443H51.8217V37.0669Z" fill="#989898"/>
<path d="M52.0015 37.0669H51.8217V44.4443H52.0015V37.0669Z" fill="#989898"/>
<path d="M14.9346 44.4443H7.55724V51.8217H14.9346V44.4443Z" fill="#989898"/>
<path d="M29.6895 44.4443H22.3121V51.8217H29.6895V44.4443Z" fill="#989898"/>
<path d="M44.4443 44.4443H37.0669V51.8217H44.4443V44.4443Z" fill="#989898"/>
<path d="M51.8217 44.4443H44.4443V51.8217H51.8217V44.4443Z" fill="#989898"/>
<path d="M52.0015 44.4443H51.8217V51.8217H52.0015V44.4443Z" fill="#989898"/>
<path d="M14.9346 51.8218H7.55724V52.0016H14.9346V51.8218Z" fill="#989898"/>
<path d="M29.6895 51.8218H22.3121V52.0016H29.6895V51.8218Z" fill="#989898"/>
<path d="M44.4443 51.8218H37.0669V52.0016H44.4443V51.8218Z" fill="#989898"/>
<path d="M51.8217 51.8218H44.4443V52.0016H51.8217V51.8218Z" fill="#989898"/>
<path d="M0.179824 0H0V0.179824H0.179824V0Z" fill="#989898"/>
<path d="M52.0015 0H51.8217V0.179824H52.0015V0Z" fill="#989898"/>
<path d="M0.179824 51.8218H0V52.0016H0.179824V51.8218Z" fill="#989898"/>
</g>
<defs>
<clipPath id="clip0_330_1374">
<rect width="52" height="52" fill="white"/>
</clipPath>
</defs>
</svg>
