<svg width="54" height="52" viewBox="0 0 54 52" fill="none" xmlns="http://www.w3.org/2000/svg">
<g clip-path="url(#clip0_334_1760)">
<path d="M11.9795 0H9.29318C8.67939 0 8.18182 0.497765 8.18182 1.11179V1.77852C8.18182 2.39254 8.67939 2.89031 9.29318 2.89031H11.9795C12.5933 2.89031 13.0909 2.39254 13.0909 1.77852V1.11179C13.0909 0.497765 12.5933 0 11.9795 0Z" fill="#989898"/>
<path d="M20.1614 0H17.475C16.8612 0 16.3636 0.497765 16.3636 1.11179V1.77852C16.3636 2.39254 16.8612 2.89031 17.475 2.89031H20.1614C20.7751 2.89031 21.2727 2.39254 21.2727 1.77852V1.11179C21.2727 0.497765 20.7751 0 20.1614 0Z" fill="#989898"/>
<path d="M11.9795 8.18494H9.29318C8.67939 8.18494 8.18182 8.6827 8.18182 9.29673V9.96346C8.18182 10.5775 8.67939 11.0752 9.29318 11.0752H11.9795C12.5933 11.0752 13.0909 10.5775 13.0909 9.96346V9.29673C13.0909 8.6827 12.5933 8.18494 11.9795 8.18494Z" fill="#989898"/>
<path d="M3.79773 8.18494H1.11136C0.497574 8.18494 0 8.6827 0 9.29673V9.96346C0 10.5775 0.497574 11.0752 1.11136 11.0752H3.79773C4.41152 11.0752 4.90909 10.5775 4.90909 9.96346V9.29673C4.90909 8.6827 4.41152 8.18494 3.79773 8.18494Z" fill="#989898"/>
<path d="M3.79773 16.3699H1.11136C0.497574 16.3699 0 16.8676 0 17.4817V18.1484C0 18.7624 0.497574 19.2602 1.11136 19.2602H3.79773C4.41152 19.2602 4.90909 18.7624 4.90909 18.1484V17.4817C4.90909 16.8676 4.41152 16.3699 3.79773 16.3699Z" fill="#989898"/>
<path d="M3.79773 32.7397H1.11136C0.497574 32.7397 0 33.2375 0 33.8515V34.5183C0 35.1323 0.497574 35.6301 1.11136 35.6301H3.79773C4.41152 35.6301 4.90909 35.1323 4.90909 34.5183V33.8515C4.90909 33.2375 4.41152 32.7397 3.79773 32.7397Z" fill="#989898"/>
<path d="M20.1614 32.7397H17.475C16.8612 32.7397 16.3636 33.2375 16.3636 33.8515V34.5183C16.3636 35.1323 16.8612 35.6301 17.475 35.6301H20.1614C20.7751 35.6301 21.2727 35.1323 21.2727 34.5183V33.8515C21.2727 33.2375 20.7751 32.7397 20.1614 32.7397Z" fill="#989898"/>
<path d="M28.1915 32.7397H25.5051C24.8913 32.7397 24.3938 33.2375 24.3938 33.8515V34.5183C24.3938 35.1323 24.8913 35.6301 25.5051 35.6301H28.1915C28.8053 35.6301 29.3028 35.1323 29.3028 34.5183V33.8515C29.3028 33.2375 28.8053 32.7397 28.1915 32.7397Z" fill="#989898"/>
<path d="M36.525 24.5548H33.8386C33.2248 24.5548 32.7273 25.0526 32.7273 25.6666V26.3333C32.7273 26.9474 33.2248 27.4451 33.8386 27.4451H36.525C37.1388 27.4451 37.6364 26.9474 37.6364 26.3333V25.6666C37.6364 25.0526 37.1388 24.5548 36.525 24.5548Z" fill="#989898"/>
<path d="M28.3432 40.9247H25.6568C25.043 40.9247 24.5455 41.4224 24.5455 42.0365V42.7032C24.5455 43.3172 25.043 43.815 25.6568 43.815H28.3432C28.957 43.815 29.4545 43.3172 29.4545 42.7032V42.0365C29.4545 41.4224 28.957 40.9247 28.3432 40.9247Z" fill="#989898"/>
<path d="M20.1614 40.9247H17.475C16.8612 40.9247 16.3636 41.4224 16.3636 42.0365V42.7032C16.3636 43.3172 16.8612 43.815 17.475 43.815H20.1614C20.7751 43.815 21.2727 43.3172 21.2727 42.7032V42.0365C21.2727 41.4224 20.7751 40.9247 20.1614 40.9247Z" fill="#989898"/>
<path d="M11.9795 40.9247H9.29318C8.67939 40.9247 8.18182 41.4224 8.18182 42.0365V42.7032C8.18182 43.3172 8.67939 43.815 9.29318 43.815H11.9795C12.5933 43.815 13.0909 43.3172 13.0909 42.7032V42.0365C13.0909 41.4224 12.5933 40.9247 11.9795 40.9247Z" fill="#989898"/>
<path d="M28.3432 49.1097H25.6568C25.043 49.1097 24.5455 49.6075 24.5455 50.2215V50.8883C24.5455 51.5023 25.043 52.0001 25.6568 52.0001H28.3432C28.957 52.0001 29.4545 51.5023 29.4545 50.8883V50.2215C29.4545 49.6075 28.957 49.1097 28.3432 49.1097Z" fill="#989898"/>
<path d="M44.7068 40.9247H42.0205C41.4067 40.9247 40.9091 41.4224 40.9091 42.0365V42.7032C40.9091 43.3172 41.4067 43.815 42.0205 43.815H44.7068C45.3206 43.815 45.8182 43.3172 45.8182 42.7032V42.0365C45.8182 41.4224 45.3206 40.9247 44.7068 40.9247Z" fill="#989898"/>
<path d="M44.7068 49.1097H42.0205C41.4067 49.1097 40.9091 49.6075 40.9091 50.2215V50.8883C40.9091 51.5023 41.4067 52.0001 42.0205 52.0001H44.7068C45.3206 52.0001 45.8182 51.5023 45.8182 50.8883V50.2215C45.8182 49.6075 45.3206 49.1097 44.7068 49.1097Z" fill="#989898"/>
<path d="M52.8886 40.9247H50.2023C49.5885 40.9247 49.0909 41.4224 49.0909 42.0365V42.7032C49.0909 43.3172 49.5885 43.815 50.2023 43.815H52.8886C53.5024 43.815 54 43.3172 54 42.7032V42.0365C54 41.4224 53.5024 40.9247 52.8886 40.9247Z" fill="#989898"/>
<path d="M52.8886 32.7397H50.2023C49.5885 32.7397 49.0909 33.2375 49.0909 33.8515V34.5183C49.0909 35.1323 49.5885 35.6301 50.2023 35.6301H52.8886C53.5024 35.6301 54 35.1323 54 34.5183V33.8515C54 33.2375 53.5024 32.7397 52.8886 32.7397Z" fill="#989898"/>
<path d="M52.8886 49.1097H50.2023C49.5885 49.1097 49.0909 49.6075 49.0909 50.2215V50.8883C49.0909 51.5023 49.5885 52.0001 50.2023 52.0001H52.8886C53.5024 52.0001 54 51.5023 54 50.8883V50.2215C54 49.6075 53.5024 49.1097 52.8886 49.1097Z" fill="#989898"/>
<path d="M11.9795 49.1097H9.29318C8.67939 49.1097 8.18182 49.6075 8.18182 50.2215V50.8883C8.18182 51.5023 8.67939 52.0001 9.29318 52.0001H11.9795C12.5933 52.0001 13.0909 51.5023 13.0909 50.8883V50.2215C13.0909 49.6075 12.5933 49.1097 11.9795 49.1097Z" fill="#989898"/>
<path d="M3.79773 40.9247H1.11136C0.497574 40.9247 0 41.4224 0 42.0365V42.7032C0 43.3172 0.497574 43.815 1.11136 43.815H3.79773C4.41152 43.815 4.90909 43.3172 4.90909 42.7032V42.0365C4.90909 41.4224 4.41152 40.9247 3.79773 40.9247Z" fill="#989898"/>
<path d="M20.1614 8.18494H17.475C16.8612 8.18494 16.3636 8.6827 16.3636 9.29673V9.96346C16.3636 10.5775 16.8612 11.0752 17.475 11.0752H20.1614C20.7751 11.0752 21.2727 10.5775 21.2727 9.96346V9.29673C21.2727 8.6827 20.7751 8.18494 20.1614 8.18494Z" fill="#989898"/>
<path d="M36.525 8.18494H33.8386C33.2248 8.18494 32.7273 8.6827 32.7273 9.29673V9.96346C32.7273 10.5775 33.2248 11.0752 33.8386 11.0752H36.525C37.1388 11.0752 37.6364 10.5775 37.6364 9.96346V9.29673C37.6364 8.6827 37.1388 8.18494 36.525 8.18494Z" fill="#989898"/>
<path d="M36.525 0H33.8386C33.2248 0 32.7273 0.497765 32.7273 1.11179V1.77852C32.7273 2.39254 33.2248 2.89031 33.8386 2.89031H36.525C37.1388 2.89031 37.6364 2.39254 37.6364 1.77852V1.11179C37.6364 0.497765 37.1388 0 36.525 0Z" fill="#989898"/>
<path d="M44.7068 0H42.0205C41.4067 0 40.9091 0.497765 40.9091 1.11179V1.77852C40.9091 2.39254 41.4067 2.89031 42.0205 2.89031H44.7068C45.3206 2.89031 45.8182 2.39254 45.8182 1.77852V1.11179C45.8182 0.497765 45.3206 0 44.7068 0Z" fill="#989898"/>
<path d="M52.8886 8.18494H50.2023C49.5885 8.18494 49.0909 8.6827 49.0909 9.29673V9.96346C49.0909 10.5775 49.5885 11.0752 50.2023 11.0752H52.8886C53.5024 11.0752 54 10.5775 54 9.96346V9.29673C54 8.6827 53.5024 8.18494 52.8886 8.18494Z" fill="#989898"/>
<path d="M44.8585 16.167H42.1722C41.5584 16.167 41.0608 16.6648 41.0608 17.2788V17.9455C41.0608 18.5595 41.5584 19.0573 42.1722 19.0573H44.8585C45.4723 19.0573 45.9699 18.5595 45.9699 17.9455V17.2788C45.9699 16.6648 45.4723 16.167 44.8585 16.167Z" fill="#989898"/>
<path d="M36.525 16.167H33.8386C33.2248 16.167 32.7273 16.6648 32.7273 17.2788V17.9455C32.7273 18.5595 33.2248 19.0573 33.8386 19.0573H36.525C37.1388 19.0573 37.6364 18.5595 37.6364 17.9455V17.2788C37.6364 16.6648 37.1388 16.167 36.525 16.167Z" fill="#989898"/>
<path d="M28.1915 16.167H25.5051C24.8913 16.167 24.3938 16.6648 24.3938 17.2788V17.9455C24.3938 18.5595 24.8913 19.0573 25.5051 19.0573H28.1915C28.8053 19.0573 29.3028 18.5595 29.3028 17.9455V17.2788C29.3028 16.6648 28.8053 16.167 28.1915 16.167Z" fill="#989898"/>
<path d="M11.9795 24.5548H9.29318C8.67939 24.5548 8.18182 25.0526 8.18182 25.6666V26.3333C8.18182 26.9474 8.67939 27.4451 9.29318 27.4451H11.9795C12.5933 27.4451 13.0909 26.9474 13.0909 26.3333V25.6666C13.0909 25.0526 12.5933 24.5548 11.9795 24.5548Z" fill="#989898"/>
<path d="M20.1614 16.167H17.475C16.8612 16.167 16.3636 16.6648 16.3636 17.2788V17.9455C16.3636 18.5595 16.8612 19.0573 17.475 19.0573H20.1614C20.7751 19.0573 21.2727 18.5595 21.2727 17.9455V17.2788C21.2727 16.6648 20.7751 16.167 20.1614 16.167Z" fill="#989898"/>
</g>
<defs>
<clipPath id="clip0_334_1760">
<rect width="54" height="52" fill="white"/>
</clipPath>
</defs>
</svg>
