<svg width="53" height="56" viewBox="0 0 53 56" fill="none" xmlns="http://www.w3.org/2000/svg">
<g clip-path="url(#clip0_300_2158)">
<path d="M0 36.6227V18.6652C0 8.37301 8.12036 0 18.0941 0H34.9059C44.8812 0 53 8.37301 53 18.6652V55.3043L18.0941 55.2928C8.12036 55.2928 0 46.9198 0 36.6227ZM7.95 36.6227C7.95 42.344 12.5007 46.9972 18.0973 46.9972L45.05 47.0054V18.6652C45.05 12.9471 40.4993 8.29565 34.9059 8.29565H18.0941C12.5007 8.29565 7.95 12.9471 7.95 18.6652V36.6227Z" fill="#989898"/>
<path d="M14 33.1944V21.7986C14 18.0503 16.9748 15 20.6312 15H31.3688C35.0252 15 38 18.0503 38 21.7986V40L20.6329 39.9896C16.9765 39.9896 14.0017 36.9427 14.0017 33.1944H14Z" fill="#989898"/>
</g>
<defs>
<clipPath id="clip0_300_2158">
<rect width="53" height="55.3043" fill="white"/>
</clipPath>
</defs>
</svg>
