<svg width="53" height="53" viewBox="0 0 53 53" fill="none" xmlns="http://www.w3.org/2000/svg">
<g clip-path="url(#clip0_300_2169)">
<path d="M26.5008 0C11.8659 0 0 11.8659 0 26.5008C0 41.1357 11.8659 53.0016 26.5008 53.0016C41.1357 53.0016 53.0016 41.1357 53.0016 26.5008C53.0016 11.8659 41.1357 0 26.5008 0ZM26.5008 45.0502C16.2728 45.0502 7.95137 36.7288 7.95137 26.5008C7.95137 16.2728 16.2728 7.95137 26.5008 7.95137C36.7288 7.95137 45.0502 16.2728 45.0502 26.5008C45.0502 36.7288 36.7288 45.0502 26.5008 45.0502Z" fill="#989898"/>
<g clip-path="url(#clip1_300_2169)">
<path d="M27.0004 14C20.3732 14 15 19.1494 15 25.5003C15 31.8513 20.3732 37.0007 27.0004 37.0007C33.6275 37.0007 39.0007 31.8513 39.0007 25.5003C39.0007 19.1494 33.6275 14 27.0004 14ZM27.0004 33.5501C22.3688 33.5501 18.6006 29.9389 18.6006 25.5003C18.6006 21.0618 22.3688 17.4506 27.0004 17.4506C31.6319 17.4506 35.4001 21.0618 35.4001 25.5003C35.4001 29.9389 31.6319 33.5501 27.0004 33.5501Z" fill="#989898"/>
<ellipse cx="27" cy="25.5" rx="12" ry="11.5" fill="#989898"/>
</g>
</g>
<defs>
<clipPath id="clip0_300_2169">
<rect width="53" height="53" fill="white"/>
</clipPath>
<clipPath id="clip1_300_2169">
<rect width="24" height="23" fill="white" transform="translate(15 14)"/>
</clipPath>
</defs>
</svg>
