<svg width="53" height="53" viewBox="0 0 53 53" fill="none" xmlns="http://www.w3.org/2000/svg">
<g clip-path="url(#clip0_300_2150)">
<path d="M35.1125 53H17.9033C8.03518 53 0.0110417 44.8796 0.0110417 34.9059L0 0H35.1125C44.9759 0 53 8.12036 53 18.0941V53H35.1125ZM45.05 18.0941C45.05 12.5007 40.5923 7.95 35.1125 7.95H7.95158L7.95946 34.9027C7.95946 40.4993 12.4203 45.05 17.9017 45.05H45.0484V18.0941H45.05Z" fill="#989898"/>
<g clip-path="url(#clip1_300_2150)">
<path d="M31.4467 39H20.5233C19.9617 39 19.4167 38.9283 18.8983 38.79C17.7517 38.4883 16.7283 37.88 15.9183 37.0533C15.77 36.905 15.6283 36.745 15.4983 36.5833C14.565 35.4383 14.0067 33.9667 14.0067 32.3683L14 15H31.4467C35.04 15 37.96 17.975 37.96 21.6317V32.3683L38 38.9967C38 38.9967 33.6933 39 31.4467 39Z" fill="#989898"/>
</g>
</g>
<defs>
<clipPath id="clip0_300_2150">
<rect width="53" height="53" fill="white"/>
</clipPath>
<clipPath id="clip1_300_2150">
<rect width="24" height="24" fill="white" transform="translate(14 15)"/>
</clipPath>
</defs>
</svg>
