<svg width="53" height="53" viewBox="0 0 53 53" fill="none" xmlns="http://www.w3.org/2000/svg">
<g clip-path="url(#clip0_300_2176)">
<path d="M11.3784 53C7.85384 53 4.50594 49.3689 3.97898 45.9996L0 0L46.7097 2.99387C50.0023 3.48759 52.5914 6.59976 52.5961 10.3334L53 53H11.3784ZM45.4286 45.4301L45.1398 14.9599C45.1367 12.2941 43.2876 10.0668 40.9353 9.71351L7.57143 7.57774L10.4129 40.4267C10.79 42.8306 13.1818 45.4301 15.6982 45.4301H45.4286Z" fill="#989898"/>
<g clip-path="url(#clip1_300_2176)">
<path d="M19.3667 39C17.7034 39 16.1251 37.2812 15.8769 35.6944L14 14L36.0328 15.4097C37.585 15.6424 38.8073 17.1163 38.809 18.8767L39 39H19.3667Z" fill="#989898"/>
</g>
</g>
<defs>
<clipPath id="clip0_300_2176">
<rect width="53" height="53" fill="white"/>
</clipPath>
<clipPath id="clip1_300_2176">
<rect width="25" height="25" fill="white" transform="translate(14 14)"/>
</clipPath>
</defs>
</svg>
