<svg width="53" height="53" viewBox="0 0 53 53" fill="none" xmlns="http://www.w3.org/2000/svg">
<g clip-path="url(#clip0_300_2165)">
<path d="M34.9059 0H18.0957C9.90122 0 2.96074 5.41438 0.741369 12.8134C0.512649 13.5785 0.332827 14.3658 0.208214 15.1704C0.0709822 16.057 0 16.9657 0 17.8917V35.1035C0 44.9731 8.12036 52.9984 18.0941 52.9984H26.5H34.9059C44.8812 52.9984 53 44.9731 53 35.1035V17.8917C53 8.02533 44.8796 0 34.9059 0ZM45.05 35.102C45.05 40.5857 40.4993 45.0457 34.9027 45.0457H26.5H18.0973C12.5007 45.0457 7.95 40.5842 7.95 35.102V17.8902C7.95 16.1769 8.39482 14.5645 9.17562 13.1557C9.92803 11.8006 10.9928 10.6347 12.2752 9.75282C13.9235 8.61852 15.93 7.95118 18.0941 7.95118H34.9059C40.4993 7.95118 45.05 12.4095 45.05 17.8902V35.102Z" fill="#989898"/>
<path d="M20.5476 14C18.9374 14 17.4642 14.6206 16.3234 15.6473C17.4859 14.6206 18.9959 14 20.6461 14H20.5476Z" fill="#989898"/>
<path d="M31.5115 14H31.4063C33.2236 14 34.8738 14.7548 36.0748 15.9733C34.8955 14.7531 33.2854 14 31.5115 14Z" fill="#989898"/>
<path d="M36.0748 15.9731C36.0883 15.9873 36.1036 16.0014 36.1188 16.0173C36.1053 16.0032 36.09 15.9891 36.0748 15.9731Z" fill="#989898"/>
<path d="M16.3234 15.6472C14.902 16.9006 14 18.757 14 20.8262V32.2684C14 32.3189 14.0033 32.3677 14.0033 32.4183L14.01 20.9343C14.01 18.818 14.9086 16.9197 16.3234 15.6472Z" fill="#989898"/>
<path d="M36.1667 16.0691C37.3325 17.3225 38.0524 19.0412 38.0524 20.9343V20.8245C38.0524 18.9767 37.3325 17.2981 36.1667 16.0674V16.0691Z" fill="#989898"/>
<path d="M36.1183 16.0168C36.1049 16.0029 36.0899 15.989 36.0748 15.9733C34.8739 14.7548 33.2253 14 31.4063 14H20.6445C18.9943 14 17.486 14.6223 16.3218 15.6473C14.9087 16.9198 14.0084 18.8181 14.0084 20.9343L14.0017 32.4184C14.0802 36.1121 17.0283 39.0912 20.6429 39.0912L31.6519 39.0982C35.1912 39.0163 38.0491 35.9396 38.0491 32.1673V20.9343C38.0491 19.0395 37.3276 17.3207 36.1634 16.0691C36.1467 16.0517 36.1316 16.0343 36.1149 16.0168H36.1183Z" fill="#989898"/>
</g>
<defs>
<clipPath id="clip0_300_2165">
<rect width="53" height="53" fill="white"/>
</clipPath>
</defs>
</svg>
