<svg width="53" height="53" viewBox="0 0 53 53" fill="none" xmlns="http://www.w3.org/2000/svg">
<g clip-path="url(#clip0_300_2162)">
<path d="M32.4537 52.9636C35.9698 52.9636 39.4859 52.9604 43.002 52.962C44.7608 52.962 46.518 52.9636 48.2769 52.9683C49.1208 52.9714 49.9647 52.973 50.8086 52.9746C51.3024 52.9746 51.8939 53.0582 52.3798 52.9241C52.7126 52.8326 52.812 52.5455 52.8072 52.2269C52.7962 51.4634 52.5328 50.6779 52.405 49.9254C52.1179 48.2329 51.9334 46.5245 51.7788 44.8146C51.4649 41.3553 51.1762 37.8865 51.0642 34.4114C50.9538 30.9648 51.0626 27.5055 51.4191 24.0777C51.5942 22.3867 51.8403 20.7036 52.1873 19.0378C52.5075 17.5046 52.8845 16.006 52.976 14.4365C53.1495 11.4772 52.4618 8.55897 50.9096 6.02877C49.4615 3.66579 47.2799 2.02999 44.6898 1.08827C41.5223 -0.0616758 38.1766 0.00142129 34.8593 0.0124633C31.3621 0.0235053 27.865 -0.000156133 24.3662 -0.000156133C20.8691 -0.00173356 17.3735 0.0171956 13.8763 0.113419C11.2578 0.18598 8.62507 0.652899 6.32202 1.9669C3.87859 3.35977 1.97778 5.60444 1.07234 8.27345C0.0359704 11.3352 0.1038 14.7725 0.0990675 17.9683C0.089603 24.8806 -0.128082 31.815 0.11011 38.7241C0.203178 41.3963 0.717419 44.1016 2.09136 46.4267C3.54733 48.8922 5.84879 50.7236 8.50676 51.7458C11.6048 52.9367 14.8938 53.0282 18.1685 52.973C21.6089 52.9147 25.0477 52.9983 28.4896 52.9809C29.8115 52.9746 31.1318 52.9651 32.4521 52.9651C28.977 52.9651 38.7808 52.9651 32.4521 52.9651L32.4537 52.9636ZM30.9425 45.3761C30.9425 45.3383 21.4748 45.3619 20.5788 45.3525C18.9099 45.3399 17.2173 45.3966 15.5768 45.0323C14.1603 44.7183 12.8037 44.1363 11.6127 43.3018C9.66144 41.9326 8.38372 39.8898 7.99094 37.541C7.73697 36.0251 7.82058 34.4509 7.80638 32.9192C7.79218 31.1556 7.78903 29.3921 7.79534 27.6285C7.80323 25.8649 7.81742 24.1014 7.84266 22.3378C7.86475 20.6642 7.80165 18.9842 7.87106 17.3121C7.9799 14.6936 8.74653 11.9757 10.671 10.0985C11.4771 9.31298 12.4629 8.7246 13.5419 8.4028C14.9584 7.98005 16.5075 8.02737 17.9713 7.9485C21.4685 7.75448 24.9704 7.61251 28.4738 7.61882C30.2248 7.62197 31.9757 7.66299 33.7235 7.7529C35.2868 7.83335 36.9225 7.84912 38.4574 8.17565C40.7336 8.6615 42.7653 10.0906 43.9673 12.0877C45.5337 14.6889 45.2514 17.5803 44.7482 20.4465C44.1519 23.8395 44.0147 27.2641 44.0194 30.7013C44.0225 33.252 44.0904 35.7854 44.3585 38.3235C44.4879 39.5507 44.6456 40.7764 44.8065 42.0004C44.887 42.6125 44.969 43.2261 45.0495 43.8381C45.0968 44.2009 45.1804 44.6363 45.0037 44.9786C44.6551 45.6506 43.36 45.3935 42.7843 45.3872C41.445 45.3746 40.1058 45.3682 38.765 45.3667C36.1591 45.3635 33.55 45.3746 30.9409 45.3746C30.9409 45.3651 35.241 45.3746 30.9409 45.3746L30.9425 45.3761Z" fill="#989898"/>
<g clip-path="url(#clip1_300_2162)">
<path d="M31.1251 38.9585C30.7603 38.9549 30.1952 38.9549 30.1211 38.9585H31.1251Z" fill="#989898"/>
<path d="M19.4152 38.731C20.5582 38.9723 21.7355 38.9341 22.8984 38.9445C23.5214 38.948 30.1157 38.9341 30.1157 38.9584H30.1229C30.197 38.955 30.7621 38.955 31.1269 38.9584H31.1486C32.6202 38.955 34.0882 38.948 35.5616 38.9515C36.4952 38.9515 37.4287 38.955 38.3586 38.9654C38.7613 38.9688 39.6605 39.1372 39.9043 38.6963C40.0289 38.4688 39.9711 38.1806 39.9368 37.9428C39.8808 37.5366 39.823 37.1338 39.7671 36.7275C39.6569 35.9185 39.545 35.1095 39.4529 34.2952C39.2687 32.6164 39.2199 30.9463 39.2163 29.257C39.2163 26.9862 39.312 24.7241 39.7255 22.4775C40.0758 20.5852 40.2709 18.672 39.1838 16.9532C38.346 15.6355 36.9303 14.6893 35.3468 14.3681C34.276 14.1546 33.1366 14.1442 32.0514 14.0886C30.8326 14.0279 29.6119 14.0036 28.3931 14.0001C25.9554 13.9966 23.5159 14.0921 21.0855 14.2171C20.0671 14.2692 18.9855 14.2379 18.0014 14.5192C17.2484 14.7327 16.5623 15.1216 16.0025 15.6407C14.6627 16.8803 14.1282 18.6772 14.0542 20.4081C14.0054 21.5157 14.0506 22.6251 14.0325 23.7293C14.0181 24.8959 14.0072 26.0626 14.0036 27.2293C14 28.3925 14 29.5591 14.0108 30.7258C14.0181 31.7379 13.9621 32.7796 14.1354 33.7813C14.4081 35.3334 15.3019 36.6859 16.6598 37.5904C17.4868 38.1407 18.4311 38.5261 19.4152 38.7327V38.731Z" fill="#989898"/>
</g>
</g>
<defs>
<clipPath id="clip0_300_2162">
<rect width="53" height="53" fill="white"/>
</clipPath>
<clipPath id="clip1_300_2162">
<rect width="26" height="25" fill="white" transform="translate(14 14)"/>
</clipPath>
</defs>
</svg>
